<svg width="33" height="33" viewBox="0 0 33 33" fill="none" xmlns="http://www.w3.org/2000/svg">
<path d="M22.9009 11.3468C23.6962 11.3468 24.3409 10.7021 24.3409 9.9068C24.3409 9.11151 23.6962 8.4668 22.9009 8.4668C22.1056 8.4668 21.4609 9.11151 21.4609 9.9068C21.4609 10.7021 22.1056 11.3468 22.9009 11.3468Z" fill="#FBFBFB"/>
<path d="M16.495 10.1509C15.2763 10.1509 14.0849 10.5123 13.0716 11.1894C12.0583 11.8665 11.2685 12.8288 10.8021 13.9548C10.3357 15.0807 10.2136 16.3197 10.4514 17.515C10.6892 18.7103 11.276 19.8083 12.1378 20.6701C12.9996 21.5318 14.0976 22.1187 15.2929 22.3565C16.4882 22.5942 17.7271 22.4722 18.8531 22.0058C19.9791 21.5394 20.9414 20.7496 21.6185 19.7363C22.2956 18.723 22.657 17.5316 22.657 16.3129C22.657 14.6786 22.0078 13.1113 20.8522 11.9557C19.6966 10.8001 18.1293 10.1509 16.495 10.1509ZM16.495 20.3129C15.7039 20.3129 14.9305 20.0783 14.2727 19.6388C13.6149 19.1992 13.1022 18.5745 12.7995 17.8436C12.4967 17.1127 12.4175 16.3084 12.5719 15.5325C12.7262 14.7566 13.1072 14.0439 13.6666 13.4845C14.226 12.925 14.9387 12.5441 15.7146 12.3897C16.4906 12.2354 17.2948 12.3146 18.0257 12.6174C18.7566 12.9201 19.3814 13.4328 19.8209 14.0906C20.2604 14.7484 20.495 15.5218 20.495 16.3129C20.495 17.3737 20.0736 18.3912 19.3234 19.1413C18.5733 19.8915 17.5559 20.3129 16.495 20.3129Z" fill="#FBFBFB"/>
<path d="M16.4951 6.47499C19.6991 6.47499 20.0791 6.48699 21.3441 6.54499C22.105 6.55402 22.8586 6.69372 23.5721 6.95799C24.0898 7.15768 24.5599 7.46353 24.9522 7.85587C25.3446 8.2482 25.6504 8.71833 25.8501 9.23599C26.1144 9.94952 26.2541 10.7031 26.2631 11.464C26.3211 12.729 26.3331 13.109 26.3331 16.314C26.3331 19.519 26.3211 19.897 26.2631 21.162C26.2541 21.9228 26.1144 22.6765 25.8501 23.39C25.6504 23.9076 25.3446 24.3778 24.9522 24.7701C24.5599 25.1624 24.0898 25.4683 23.5721 25.668C22.8586 25.9323 22.105 26.072 21.3441 26.081C20.0791 26.139 19.6991 26.151 16.4951 26.151C13.2911 26.151 12.9111 26.139 11.6461 26.081C10.8853 26.072 10.1316 25.9323 9.41812 25.668C8.90045 25.4683 8.43033 25.1624 8.038 24.7701C7.64566 24.3778 7.33981 23.9076 7.14012 23.39C6.87585 22.6765 6.73615 21.9228 6.72712 21.162C6.66912 19.897 6.65712 19.517 6.65712 16.313C6.65712 13.109 6.66912 12.729 6.72712 11.464C6.73615 10.7031 6.87585 9.94952 7.14012 9.23599C7.33981 8.71833 7.64566 8.2482 8.038 7.85587C8.43033 7.46353 8.90045 7.15768 9.41812 6.95799C10.1316 6.69372 10.8853 6.55402 11.6461 6.54499C12.9111 6.48699 13.2911 6.47499 16.4951 6.47499ZM16.4951 4.31299C13.2361 4.31299 12.8271 4.32699 11.5471 4.38499C10.5519 4.40508 9.56727 4.59376 8.63512 4.94299C7.83784 5.25129 7.11378 5.72277 6.50934 6.32721C5.90489 6.93165 5.43341 7.65571 5.12512 8.45299C4.77578 9.38546 4.5871 10.3704 4.56712 11.366C4.50912 12.646 4.49512 13.053 4.49512 16.313C4.49512 19.573 4.50912 19.981 4.56712 21.261C4.58721 22.2562 4.77589 23.2408 5.12512 24.173C5.43341 24.9703 5.90489 25.6943 6.50934 26.2988C7.11378 26.9032 7.83784 27.3747 8.63512 27.683C9.56759 28.0323 10.5526 28.221 11.5481 28.241C12.8281 28.299 13.2361 28.313 16.4951 28.313C19.7541 28.313 20.1631 28.299 21.4431 28.241C22.4387 28.221 23.4236 28.0323 24.3561 27.683C25.1534 27.3747 25.8775 26.9032 26.4819 26.2988C27.0863 25.6943 27.5578 24.9703 27.8661 24.173C28.2151 23.2405 28.4035 22.2555 28.4231 21.26C28.4811 19.98 28.4951 19.573 28.4951 16.313C28.4951 13.053 28.4811 12.645 28.4231 11.365C28.403 10.3698 28.2143 9.38515 27.8651 8.45299C27.5568 7.65571 27.0853 6.93165 26.4809 6.32721C25.8765 5.72277 25.1524 5.25129 24.3551 4.94299C23.4226 4.59399 22.4376 4.40565 21.4421 4.38599C20.1621 4.32599 19.7551 4.31299 16.4951 4.31299Z" fill="#FBFBFB"/>
</svg>
