<svg width="37" height="52" viewBox="0 0 37 52" fill="none" xmlns="http://www.w3.org/2000/svg">
<path d="M15.1014 27.3865C8.85728 27.0607 3.86166 21.8483 3.86166 15.5495C3.86166 9.03379 9.18278 3.71248 15.6987 3.71248C22.2143 3.71248 27.5356 9.0336 27.5356 15.5495C27.5356 18.2644 26.6126 20.7623 25.0923 22.7711C25.3094 23.3142 25.4181 23.9116 25.4181 24.5088V27.2237C28.7844 24.4546 30.9021 20.2195 30.9021 15.5497C30.9021 7.18795 24.1148 0.346191 15.6986 0.346191C7.28238 0.346191 0.495117 7.13345 0.495117 15.5497C0.495117 23.6944 6.95669 30.373 15.047 30.6988L15.0478 27.3863L15.1014 27.3865Z" fill="url(#paint0_linear_673_11222)"/>
<path d="M19.4996 11.1513L14.2871 16.3637L11.8979 13.9745C11.2465 13.323 10.2148 13.323 9.56331 13.9745C8.91183 14.6259 8.91185 15.6576 9.56331 16.3091L13.0925 19.8383C13.4182 20.164 13.8527 20.3269 14.2871 20.3269C14.7215 20.3269 15.1559 20.164 15.4816 19.8383L21.8345 13.4854C22.486 12.834 22.486 11.8023 21.8345 11.1508C21.183 10.4993 20.1514 10.4993 19.4995 11.1512L19.4996 11.1513Z" fill="url(#paint1_linear_673_11222)"/>
<path d="M36.4948 36.8887C36.4948 35.5312 35.3543 34.3907 33.9968 34.3907C33.128 34.3907 32.3137 34.8793 31.8792 35.5853V35.5311C31.8792 34.1737 30.7388 33.0332 29.3813 33.0332C28.5125 33.0332 27.6982 33.5218 27.2637 34.1737V34.1195C27.2637 32.7621 26.1232 31.6216 24.7658 31.6216C23.8969 31.6216 23.0826 32.1102 22.6482 32.7621L22.6485 24.4545C22.6485 23.803 22.377 23.1512 21.9425 22.7167C21.4539 22.2281 20.8567 22.0107 20.2048 22.0107C18.8474 22.0107 17.7069 23.1512 17.7069 24.5086V39.875C17.7069 40.0379 17.6527 40.1466 17.4899 40.2007C17.3812 40.2549 17.2183 40.2549 17.1096 40.1466L14.6667 37.5404C13.7978 36.6715 12.4949 36.5632 11.4632 37.2146C10.8659 37.5949 10.486 38.2464 10.3773 38.9524C10.2686 39.6583 10.486 40.364 10.9204 40.9071L17.2191 48.5086C19.011 50.6804 21.6172 51.875 24.3867 51.875H28.2958C30.4675 51.875 32.531 51.0062 34.1058 49.4858C35.6803 47.9114 36.4951 45.902 36.4951 43.6757L36.4948 36.8887Z" fill="url(#paint2_linear_673_11222)"/>
<defs>
<linearGradient id="paint0_linear_673_11222" x1="36.391" y1="-5.82084" x2="-0.128591" y2="30.7641" gradientUnits="userSpaceOnUse">
<stop stop-color="#2DA8E1"/>
<stop offset="0.947699" stop-color="#30AD73"/>
</linearGradient>
<linearGradient id="paint1_linear_673_11222" x1="24.7146" y1="8.69857" x2="13.6417" y2="23.8775" gradientUnits="userSpaceOnUse">
<stop stop-color="#2DA8E1"/>
<stop offset="0.947699" stop-color="#30AD73"/>
</linearGradient>
<linearGradient id="paint2_linear_673_11222" x1="41.2147" y1="15.9429" x2="5.59806" y2="47.1245" gradientUnits="userSpaceOnUse">
<stop stop-color="#2DA8E1"/>
<stop offset="0.947699" stop-color="#30AD73"/>
</linearGradient>
</defs>
</svg>
