<svg width="65" height="57" viewBox="0 0 65 57" fill="none" xmlns="http://www.w3.org/2000/svg">
<path d="M29.2861 34.2778C27.9141 30.0669 26.8578 26.4958 25.5587 23.01C25.1823 22.0106 24.1927 20.737 23.3125 20.5724C22.4322 20.4079 20.9388 21.3707 20.5624 22.2239C18.0491 27.9157 13.7025 29.0614 7.91708 28.6226C1.23926 28.1168 0.935725 28.263 0.535056 21.3098C-0.144867 9.59102 7.92922 0.480498 19.2026 0.187986C23.4885 0.0782941 27.0521 1.82727 30.1846 4.45379C31.8904 5.89807 32.9771 5.95899 34.7862 4.51471C42.0346 -1.28068 50.5398 -1.20753 57.3997 4.45989C64.1443 10.0298 66.5058 20.4871 62.6266 28.1046C62.2988 28.7506 61.3578 29.0918 60.6779 29.5367C60.5383 29.6281 60.2833 29.5367 60.0708 29.5367C56.3616 29.4697 51.8511 30.6641 49.1435 28.9639C46.6424 27.3672 46.1628 22.6566 44.6269 19.3963C44.0744 18.2202 43.0363 17.2695 42.1986 16.2152C41.0876 17.0927 39.6731 17.757 38.9264 18.8722C35.7757 23.7657 32.7525 28.7445 29.2861 34.2778Z" fill="url(#paint0_linear_673_11308)"/>
<path d="M41.8831 21.5166C43.1458 24.7281 44.3114 27.4095 45.2523 30.1579C45.9748 32.2664 47.1828 33.2049 49.5019 33.1196C52.774 32.9611 56.0583 33.0769 60.241 33.0769C57.6184 36.2214 55.8276 39.1039 53.3568 41.1698C47.1221 46.3801 40.6082 51.2614 34.1125 56.1549C33.4022 56.6851 31.836 56.8984 31.1318 56.4718C21.1393 50.4692 11.9361 43.522 5.36147 33.6254C5.11011 33.1395 4.89307 32.6366 4.71191 32.1202C8.00226 32.1202 10.9951 31.9069 13.9455 32.175C17.3512 32.4858 19.7977 31.5108 21.2304 28.287C21.7427 27.4258 22.3277 26.6103 22.9788 25.8494C24.2415 29.7496 25.2553 33.2841 26.5726 36.7028C27.0158 37.8546 28.0903 39.2258 29.1406 39.5183C29.8509 39.7133 31.32 38.3848 31.9513 37.4098C35.2477 32.3213 38.441 27.0865 41.8831 21.5166Z" fill="url(#paint1_linear_673_11308)"/>
<defs>
<linearGradient id="paint0_linear_673_11308" x1="76.0481" y1="-6.74424" x2="42.0028" y2="57.163" gradientUnits="userSpaceOnUse">
<stop stop-color="#2DA8E1"/>
<stop offset="0.947699" stop-color="#30AD73"/>
</linearGradient>
<linearGradient id="paint1_linear_673_11308" x1="70.2649" y1="14.3683" x2="31.9897" y2="74.779" gradientUnits="userSpaceOnUse">
<stop stop-color="#2DA8E1"/>
<stop offset="0.947699" stop-color="#30AD73"/>
</linearGradient>
</defs>
</svg>
