<svg width="177" height="80" viewBox="0 0 177 80" fill="none" xmlns="http://www.w3.org/2000/svg">
<path d="M2.61149 0.251953H5.95687V60.3978H2.61149C1.44017 60.3978 0.495117 59.4484 0.495117 58.277V2.36833C0.495117 1.197 1.44017 0.251953 2.61149 0.251953Z" fill="#2DA8E1"/>
<path d="M33.9135 31.394C33.9845 32.2947 34.1531 33.1643 34.4104 33.994V37.9739H17.9098C16.7384 37.9739 15.7889 38.9234 15.7889 40.0947V58.2769C15.7889 59.4482 14.8439 60.3977 13.6726 60.3977H9.09375V31.394H33.9135Z" fill="#2DA8E1"/>
<path d="M36.3759 22.6802C36.194 22.9287 36.0165 23.1816 35.8524 23.4478L35.4176 24.1754C34.7387 25.4266 34.2595 26.802 34.0244 28.2618H9.09375V0.251953H13.6726C14.8439 0.251953 15.7889 1.197 15.7889 2.36833V20.5594C15.7889 21.7307 16.7384 22.6802 17.9098 22.6802H36.3759Z" fill="#2DA8E1"/>
<path d="M54.1898 2.36833V19.9649C52.424 18.6693 50.3076 17.8174 48.0093 17.5734C47.5612 17.5246 47.1086 17.5024 46.6472 17.5024C46.0438 17.5024 45.4537 17.5423 44.8769 17.6266C42.6496 17.9372 40.6042 18.8246 38.8916 20.1246V2.36833C38.8916 1.197 39.8411 0.251953 41.0124 0.251953H52.0735C53.2404 0.251953 54.1898 1.197 54.1898 2.36833Z" fill="#30AD73"/>
<path d="M54.1898 40.6138V58.2769C54.1898 59.4482 53.2404 60.3977 52.0735 60.3977H41.0124C39.8411 60.3977 38.8916 59.4482 38.8916 58.2769V40.4541C40.6042 41.7541 42.6496 42.6415 44.8769 42.952C45.4537 43.0363 46.0438 43.0763 46.6472 43.0763C47.1086 43.0763 47.5612 43.0541 48.0093 43.0053C50.3076 42.7613 52.424 41.9094 54.1898 40.6138Z" fill="#30AD73"/>
<path d="M48.0094 19.1439V21.1138C47.8984 21.0961 47.7875 21.0828 47.6722 21.0695C47.5612 21.0562 47.4503 21.0473 47.335 21.0384C47.264 21.034 47.193 21.0295 47.122 21.0251C47.0599 21.0207 47.0022 21.0207 46.9401 21.0162C46.8425 21.0118 46.7449 21.0118 46.6473 21.0118C46.4831 21.0118 46.3189 21.0162 46.1592 21.0251H46.1193C45.995 21.034 45.8708 21.0428 45.7466 21.0562C45.6002 21.0695 45.4537 21.0872 45.3118 21.1094C45.1653 21.1271 45.0189 21.1538 44.877 21.1804V19.1971C45.4537 19.1084 46.0438 19.0596 46.6473 19.0596C47.1087 19.0596 47.5612 19.0862 48.0094 19.1439Z" fill="white"/>
<path d="M48.0094 22.5161H44.877V37.6324H48.0094V22.5161Z" fill="white"/>
<path d="M48.0094 39.4606V41.435C47.5612 41.4927 47.1087 41.5193 46.6473 41.5193C46.0438 41.5193 45.4537 41.4705 44.877 41.3817V39.394C45.0189 39.4207 45.1653 39.4473 45.3118 39.465C45.4537 39.4872 45.6002 39.505 45.7466 39.5183C45.8708 39.5316 45.995 39.5405 46.1193 39.5493H46.1592C46.3189 39.5582 46.4831 39.5626 46.6473 39.5626C46.7449 39.5626 46.8425 39.5626 46.9401 39.5582C47.0022 39.5538 47.0599 39.5538 47.122 39.5493C47.193 39.5449 47.264 39.5405 47.335 39.536C47.4503 39.5271 47.5612 39.5183 47.6722 39.505C47.7875 39.4917 47.8984 39.4783 48.0094 39.4606Z" fill="white"/>
<path d="M53.9946 28.4171V31.7314H48.0936V37.6324H44.7793V31.7314H38.8916V28.4171H44.7793V22.5161H48.0936V28.4171H53.9946Z" fill="white"/>
<path d="M53.9946 28.4171V31.7314H48.0936V37.6324H44.7793V31.7314H38.8916V28.4171H44.7793V22.5161H48.0936V28.4171H53.9946Z" fill="#30AD73"/>
<path d="M54.1898 21.9524C52.5082 20.435 50.3741 19.4234 48.0092 19.1439C47.5611 19.0862 47.1086 19.0596 46.6471 19.0596C46.0437 19.0596 45.4536 19.1084 44.8768 19.1971C42.5785 19.5609 40.5065 20.6213 38.8915 22.1654C38.3281 22.7067 37.8178 23.3012 37.3741 23.9534C37.1434 24.2862 36.9304 24.6367 36.7397 25.0005C35.8967 26.58 35.4175 28.3769 35.4175 30.2892V60.2867L37.3741 60.3311V36.625C37.8178 37.2773 38.3281 37.8718 38.8915 38.4131C40.5065 39.9571 42.5785 41.0175 44.8768 41.3813C45.4536 41.4701 46.0437 41.5189 46.6471 41.5189C47.1086 41.5189 47.5611 41.4923 48.0092 41.4346C50.3741 41.1551 52.5082 40.1435 54.1898 38.6261C56.4614 36.5674 57.8901 33.5947 57.8901 30.2892C57.8901 26.9838 56.4614 24.02 54.1898 21.9524ZM54.1898 35.68C54.0833 35.8264 53.9768 35.9728 53.8614 36.1104C53.7638 36.2346 53.6618 36.3544 53.5553 36.4698C53.5109 36.523 53.4621 36.5762 53.4089 36.6295L53.3956 36.6428C53.3246 36.7227 53.2492 36.8025 53.1737 36.8735C53.1382 36.909 53.1072 36.9445 53.0717 36.9756C53.0007 37.0465 52.9297 37.1131 52.8587 37.1752C52.8543 37.1796 52.8498 37.1841 52.841 37.1885C52.7833 37.2462 52.7256 37.2994 52.6591 37.3482C52.5348 37.4592 52.4062 37.5612 52.2731 37.6633C52.1666 37.7476 52.0557 37.8274 51.9447 37.9029C51.8072 38.0005 51.6696 38.0936 51.5277 38.1779C51.5277 38.1824 51.5232 38.1824 51.5232 38.1824C51.43 38.2401 51.3369 38.2933 51.2437 38.3465C51.1772 38.3865 51.115 38.422 51.0485 38.4575C50.942 38.5151 50.8311 38.5728 50.7157 38.6305H50.7113C50.5737 38.6971 50.4318 38.7592 50.2898 38.8213C50.1434 38.8834 49.997 38.9411 49.855 38.9943C49.7041 39.0476 49.5577 39.0964 49.4069 39.1452C49.256 39.1895 49.1051 39.2339 48.9499 39.2738C48.8434 39.3005 48.7369 39.3226 48.6304 39.3493C48.5772 39.3581 48.5284 39.3715 48.4751 39.3803C48.3198 39.4114 48.1645 39.438 48.0092 39.4602C47.8983 39.4779 47.7874 39.4912 47.672 39.5046C47.5611 39.5179 47.4502 39.5267 47.3348 39.5356C47.2639 39.5401 47.1929 39.5445 47.1219 39.5489C47.0598 39.5534 47.0021 39.5534 46.94 39.5578C46.8424 39.5622 46.7447 39.5622 46.6471 39.5622C46.483 39.5622 46.3188 39.5578 46.1591 39.5489H46.1191C45.9949 39.5401 45.8707 39.5312 45.7465 39.5179C45.6 39.5046 45.4536 39.4868 45.3116 39.4646C45.1652 39.4469 45.0188 39.4203 44.8768 39.3936C44.8147 39.3803 44.7526 39.367 44.6905 39.3537C44.6284 39.3404 44.5663 39.3271 44.5041 39.3093C44.4331 39.296 44.3666 39.2783 44.3045 39.2605C44.2113 39.2383 44.1181 39.2117 44.025 39.1851C43.9318 39.1585 43.8386 39.1274 43.7499 39.0964C43.6567 39.0697 43.568 39.0387 43.4792 39.0032C43.355 38.9588 43.2352 38.9145 43.1154 38.8612C43 38.8168 42.8891 38.768 42.7782 38.7148C42.7117 38.6837 42.6407 38.6527 42.5741 38.6172C42.3966 38.5285 42.2236 38.4397 42.0506 38.3377C41.953 38.2844 41.8642 38.2312 41.771 38.1735C41.771 38.1691 41.7666 38.1691 41.7666 38.1691C41.7045 38.1336 41.6424 38.0936 41.5803 38.0493C41.4915 37.996 41.4072 37.9383 41.3274 37.8807C41.2785 37.8452 41.2253 37.8097 41.1765 37.7697C41.07 37.6943 40.9635 37.6145 40.8615 37.5302C40.8482 37.5213 40.8349 37.5124 40.826 37.5035C40.7727 37.4592 40.7195 37.4148 40.6663 37.366C40.6441 37.3527 40.6219 37.3349 40.6041 37.3172L40.3513 37.0909C40.2226 36.9756 40.0983 36.8513 39.9741 36.7227C39.9475 36.696 39.9209 36.665 39.8943 36.6384C39.7833 36.5186 39.6724 36.3988 39.5704 36.2745C39.4772 36.168 39.3885 36.0571 39.2997 35.9418C39.2908 35.9329 39.2864 35.924 39.2775 35.9151C39.2376 35.8619 39.1977 35.8087 39.1577 35.751C39.0646 35.6268 38.9758 35.4981 38.8915 35.3694C37.9376 33.9097 37.3741 32.166 37.3741 30.2892C37.3741 28.4124 37.9376 26.6688 38.8915 25.209C38.9758 25.0804 39.0646 24.9517 39.1577 24.8275C39.171 24.8008 39.1888 24.7831 39.2065 24.7609C39.2243 24.7387 39.242 24.7165 39.2553 24.6944C39.2642 24.6855 39.2687 24.6722 39.2775 24.6633C39.2864 24.6544 39.2908 24.6456 39.2997 24.6367C39.3885 24.5213 39.4772 24.4104 39.5704 24.3039C39.6857 24.1664 39.8055 24.0288 39.9298 23.9002C39.9386 23.8913 39.9519 23.878 39.9608 23.8691C40.085 23.736 40.2181 23.6073 40.3513 23.4875C40.4489 23.3944 40.5553 23.3012 40.6574 23.2169C40.7328 23.1548 40.8038 23.0927 40.8792 23.035C40.968 22.9596 41.0611 22.8886 41.1543 22.8176C41.212 22.7776 41.2697 22.7377 41.3274 22.6933C41.4072 22.6357 41.4915 22.578 41.5803 22.5247C41.6424 22.4804 41.7045 22.4404 41.7666 22.405C41.8598 22.3473 41.953 22.2896 42.0506 22.2364C42.055 22.2319 42.0639 22.2319 42.0683 22.2275C42.126 22.1964 42.1792 22.1609 42.2413 22.1299C42.3035 22.0944 42.37 22.0589 42.4321 22.0278C42.5076 21.9879 42.5785 21.9524 42.654 21.9169C42.7516 21.8681 42.8492 21.8237 42.9468 21.7838C43.0622 21.7306 43.182 21.6817 43.3062 21.6374C43.4526 21.5753 43.599 21.522 43.7499 21.4777C43.8386 21.4422 43.9318 21.4155 44.025 21.3889C44.1181 21.3623 44.2113 21.3357 44.3045 21.3135C44.3666 21.2913 44.4331 21.278 44.5041 21.2647C44.5663 21.2514 44.6284 21.2336 44.6905 21.2203C44.7526 21.207 44.8147 21.1937 44.8768 21.1804C45.0188 21.1538 45.1652 21.1271 45.3116 21.1094C45.4536 21.0872 45.6 21.0695 45.7465 21.0562C45.8707 21.0428 45.9949 21.034 46.1191 21.0251H46.1591C46.3188 21.0162 46.483 21.0118 46.6471 21.0118C46.7447 21.0118 46.8424 21.0118 46.94 21.0162C47.0021 21.0162 47.0598 21.0162 47.1219 21.0251C47.1929 21.0295 47.2639 21.034 47.3348 21.0384C47.4502 21.0473 47.5611 21.0562 47.672 21.0695C47.7874 21.0828 47.8983 21.0961 48.0092 21.1138C48.1645 21.136 48.3198 21.1626 48.4751 21.1937C48.5284 21.2026 48.5772 21.2159 48.6304 21.2248C48.7369 21.2514 48.8434 21.2736 48.9499 21.3002C49.1051 21.3401 49.256 21.3845 49.4069 21.4288C49.5045 21.4599 49.6065 21.491 49.7041 21.5265C49.8772 21.5886 50.0502 21.6507 50.2188 21.7217C50.3874 21.7927 50.5516 21.8681 50.7157 21.948C50.8311 22.0056 50.942 22.0633 51.0485 22.121C51.115 22.1565 51.1772 22.192 51.2437 22.2319C51.3369 22.2852 51.43 22.3384 51.5232 22.3961C51.5232 22.3961 51.5277 22.3961 51.5277 22.4005C51.6696 22.4848 51.8072 22.578 51.9447 22.6756C52.0557 22.751 52.1666 22.8309 52.2731 22.9152C52.4062 23.0172 52.5348 23.1193 52.6591 23.2302C52.7256 23.279 52.7833 23.3323 52.841 23.3899C52.8498 23.3944 52.8543 23.3988 52.8587 23.4032C52.9297 23.4654 53.0007 23.5319 53.0717 23.6029C53.1249 23.6517 53.1826 23.7049 53.2314 23.7626C53.3201 23.8469 53.4045 23.9357 53.4843 24.0288C53.5109 24.0555 53.5331 24.0821 53.5553 24.1087C53.6618 24.2241 53.7638 24.3439 53.8614 24.4681C53.9768 24.6056 54.0833 24.752 54.1898 24.8985C55.2857 26.4203 55.9246 28.2838 55.9246 30.2892C55.9246 32.2947 55.2857 34.1582 54.1898 35.68Z" fill="#2DA8E1"/>
<path d="M44.766 75.5941C44.6285 74.9331 44.4732 74.2631 44.3223 73.6064C44.2602 73.3225 44.1892 73.0297 44.1227 72.7457C44.0206 72.2843 43.923 71.8184 43.821 71.3614C43.9407 71.3259 44.0206 71.286 44.1227 71.2505C44.096 71.1396 44.0783 71.042 44.0605 70.9399C43.8653 70.2078 43.6657 69.4802 43.4704 68.7481C43.0134 66.9911 42.6008 65.2208 41.8155 63.5526C41.2742 62.4078 40.5687 61.3652 39.393 60.713C39.0824 60.5488 38.7629 60.4113 38.4346 60.2826C38.0841 60.1451 37.7292 60.0164 37.3875 59.8788C37.3875 59.8788 37.3787 59.8744 37.3742 59.8655C37.3254 59.8345 37.3254 59.7324 37.3254 59.6437V58.4857C37.3254 57.9089 37.3165 57.3232 37.3254 56.7464L36.336 56.7198L36.0432 56.7109H36.0254C36.0121 57.3676 36.0121 57.8645 36.0032 58.5434V59.8167C35.7947 59.8478 35.5995 59.8833 35.4176 59.9232C34.0821 60.2072 33.3544 60.6553 32.5336 61.6225C31.7616 62.5454 31.1582 63.5614 30.6435 64.6263C29.7828 66.4232 29.1128 68.2822 28.5671 70.1768C28.3985 70.7269 28.2609 71.286 28.1057 71.845C28.2343 71.8938 28.3275 71.9204 28.4074 71.9471C28.3097 72.4041 28.2077 72.8522 28.1057 73.3136V73.3225C28.0702 73.4955 28.0347 73.6597 27.9992 73.8239C27.8616 74.4494 27.7019 75.0617 27.5777 75.6962C27.4179 76.4549 27.5377 77.1692 28.079 77.7904C28.6736 78.4692 29.4899 78.7443 30.3596 78.9307C30.4794 78.9484 30.5992 79.046 30.6613 79.1392C30.821 79.3788 31.0118 79.5607 31.3046 79.5873C31.5886 79.6139 31.8814 79.6272 32.1654 79.5873C32.5691 79.5429 32.8265 79.2501 32.8708 78.8641C32.9285 78.4426 32.7422 78.0877 32.3961 77.9412C31.8015 77.6928 31.0207 77.8658 30.5992 78.3716C30.2043 78.2518 29.765 78.1498 29.379 77.9767C28.4917 77.5819 28.0702 76.903 28.2254 76.0068C28.3364 75.3634 28.4739 74.7334 28.6115 74.0989C28.7401 73.531 28.8688 72.972 28.9886 72.4041C29.033 72.1689 29.1039 72.0003 29.3879 72.0846C29.4101 72.058 29.419 72.058 29.4278 72.0491C29.4811 71.845 29.5343 71.6365 29.592 71.4324C30.2886 68.8324 31.1582 66.2856 32.5336 63.9119C32.9729 63.1532 33.4742 62.4256 34.1442 61.8133C34.7032 61.2986 35.3466 61.0236 36.1496 61.0724C38.0309 61.1522 39.4418 61.8887 40.3114 63.4904C41.0524 64.857 41.4472 66.3211 41.8421 67.7853C42.1616 68.9966 42.481 70.2167 42.8138 71.4324C42.8227 71.4723 42.8493 71.5167 42.8759 71.5611C42.978 71.5433 43.0623 71.5256 43.1687 71.5078C43.2264 71.7563 43.2708 71.9737 43.3152 72.2044C43.4838 72.9276 43.6479 73.6419 43.7943 74.3651V74.374C43.9141 74.8798 44.0117 75.3723 44.1138 75.8781C44.3046 76.832 43.9008 77.5464 42.978 77.959C42.7117 78.0788 42.4189 78.1586 42.135 78.2429C41.8155 78.3317 41.4916 78.4692 41.2387 78.0788C41.1633 77.9501 40.9059 77.9102 40.724 77.8658C40.5687 77.8392 40.3957 77.8569 40.2271 77.8569C39.6237 77.8658 39.2954 78.1764 39.2954 78.7354C39.2954 79.2945 39.6237 79.5962 40.236 79.6051C40.3735 79.6139 40.5199 79.6139 40.6708 79.6051C41.008 79.5962 41.2653 79.4498 41.4384 79.1658C41.5005 79.0771 41.6292 78.9839 41.7489 78.9484C42.1083 78.8464 42.4899 78.802 42.8493 78.6911C44.3623 78.2119 45.0766 77.0583 44.766 75.5941ZM28.82 72.3064C28.7046 72.8344 28.5848 73.358 28.465 73.8904C28.3896 74.1832 28.3275 74.4761 28.2609 74.7689C28.1722 75.1815 28.0702 75.5941 28.0169 76.0156C27.8882 76.9208 28.3364 77.7105 29.2149 78.1054C29.592 78.2696 30.0046 78.3494 30.3995 78.487C30.4882 78.5269 30.5548 78.6068 30.5992 78.6999C30.0046 78.6999 29.4722 78.5358 28.9975 78.2607C27.9237 77.6573 27.5466 76.8498 27.7862 75.6873C27.9326 74.9686 28.0879 74.2631 28.2521 73.5576C28.3719 73.0385 28.4917 72.5061 28.6115 71.9826C28.9398 71.9559 28.851 72.1556 28.82 72.3064ZM42.8937 78.4604C42.4633 78.6156 42.0152 78.6999 41.5759 78.8197C41.5493 78.7709 41.5227 78.7266 41.4827 78.6822C41.567 78.6245 41.6292 78.5358 41.7223 78.5269C42.3923 78.4071 43.0312 78.2341 43.5814 77.8214C44.1049 77.4354 44.4155 76.9296 44.3356 76.2996C44.2513 75.5764 44.096 74.8621 43.9585 74.1566C43.9496 74.1078 43.9407 74.0723 43.9319 74.0279C43.7677 73.2204 43.5814 72.4218 43.3995 71.6187C43.364 71.4413 43.4261 71.3969 43.6169 71.4058C43.7278 71.8716 43.8387 72.3331 43.9407 72.8078C44.0117 73.1583 44.0872 73.5044 44.1582 73.8549V73.8638C44.3134 74.5382 44.451 75.1993 44.5885 75.887C44.8459 77.2136 44.0206 78.0477 42.8937 78.4604Z" fill="#2DA8E1"/>
<path d="M77.8934 4.20459H82.7278V12.386H92.1178V4.20459H96.9522V26.1455H92.1178V16.6626H82.7278V26.1455H77.8934V4.20459ZM111.139 16.9105C111.16 16.1254 110.902 15.454 110.364 14.8961C109.827 14.3383 109.135 14.0594 108.288 14.0594C107.772 14.0594 107.317 14.1421 106.924 14.3073C106.532 14.4726 106.191 14.6895 105.902 14.9581C105.633 15.206 105.416 15.5056 105.251 15.8568C105.106 16.1874 105.024 16.5386 105.003 16.9105H111.139ZM115.075 23.5423C114.331 24.4927 113.391 25.2261 112.255 25.7426C111.118 26.2591 109.941 26.5174 108.722 26.5174C107.565 26.5174 106.47 26.3314 105.437 25.9596C104.425 25.5877 103.536 25.0609 102.772 24.3791C102.028 23.6766 101.439 22.8399 101.005 21.8689C100.572 20.8979 100.355 19.8132 100.355 18.6149C100.355 17.4167 100.572 16.332 101.005 15.361C101.439 14.39 102.028 13.5636 102.772 12.8818C103.536 12.1794 104.425 11.6422 105.437 11.2703C106.47 10.8984 107.565 10.7125 108.722 10.7125C109.796 10.7125 110.767 10.8984 111.635 11.2703C112.523 11.6422 113.267 12.1794 113.866 12.8818C114.486 13.5636 114.961 14.39 115.292 15.361C115.622 16.332 115.788 17.4167 115.788 18.6149V20.0715H105.003C105.189 20.9598 105.592 21.6726 106.212 22.2098C106.832 22.7263 107.596 22.9845 108.505 22.9845C109.269 22.9845 109.91 22.8192 110.426 22.4887C110.964 22.1375 111.428 21.6933 111.821 21.1561L115.075 23.5423ZM126.92 19.5446C126.569 19.5446 126.124 19.5653 125.587 19.6066C125.071 19.6273 124.565 19.7099 124.069 19.8545C123.594 19.9992 123.18 20.2161 122.829 20.5053C122.499 20.7946 122.333 21.1974 122.333 21.7139C122.333 22.2718 122.571 22.685 123.046 22.9535C123.521 23.2221 124.017 23.3564 124.534 23.3564C124.988 23.3564 125.422 23.2944 125.835 23.1705C126.269 23.0465 126.651 22.8709 126.982 22.6436C127.312 22.4164 127.571 22.1271 127.757 21.7759C127.963 21.4247 128.066 21.0115 128.066 20.5363V19.5446H126.92ZM128.066 24.2551H128.004C127.488 25.0609 126.796 25.6393 125.928 25.9906C125.081 26.3418 124.182 26.5174 123.232 26.5174C122.53 26.5174 121.848 26.4141 121.187 26.2075C120.546 26.0215 119.978 25.7323 119.482 25.3398C118.986 24.9472 118.594 24.4617 118.305 23.8832C118.015 23.3048 117.871 22.6333 117.871 21.8689C117.871 21.0012 118.026 20.2677 118.336 19.6686C118.666 19.0695 119.1 18.5736 119.637 18.1811C120.195 17.7885 120.825 17.489 121.528 17.2824C122.23 17.0551 122.953 16.8898 123.697 16.7865C124.461 16.6832 125.215 16.6213 125.959 16.6006C126.724 16.5799 127.426 16.5696 128.066 16.5696C128.066 15.7432 127.767 15.0924 127.168 14.6172C126.589 14.1214 125.897 13.8735 125.091 13.8735C124.327 13.8735 123.625 14.0388 122.984 14.3693C122.364 14.6792 121.806 15.1131 121.311 15.6709L118.831 13.1297C119.699 12.324 120.711 11.7248 121.868 11.3323C123.025 10.9191 124.224 10.7125 125.463 10.7125C126.827 10.7125 127.942 10.8881 128.81 11.2393C129.699 11.5699 130.401 12.0657 130.918 12.7268C131.455 13.388 131.827 14.204 132.033 15.1751C132.24 16.1254 132.343 17.2307 132.343 18.491V26.1455H128.066V24.2551ZM135.321 2.71707H139.97V26.1455H135.321V2.71707ZM153.567 14.8032H149.477V19.8235C149.477 20.2367 149.497 20.619 149.539 20.9702C149.58 21.3007 149.673 21.59 149.818 21.8379C149.962 22.0858 150.179 22.2821 150.468 22.4267C150.778 22.5507 151.181 22.6126 151.677 22.6126C151.925 22.6126 152.245 22.592 152.638 22.5507C153.051 22.4887 153.361 22.3647 153.567 22.1788V26.0525C153.051 26.2385 152.514 26.3624 151.956 26.4244C151.398 26.4864 150.851 26.5174 150.313 26.5174C149.528 26.5174 148.805 26.4347 148.144 26.2695C147.483 26.1042 146.904 25.8459 146.409 25.4947C145.913 25.1228 145.52 24.6477 145.231 24.0692C144.962 23.4907 144.828 22.7883 144.828 21.9619V14.8032H141.853V11.0844H144.828V6.62181H149.477V11.0844H153.567V14.8032ZM160.578 2.71707V13.1297H160.64C160.743 12.8405 160.919 12.5512 161.167 12.262C161.415 11.9728 161.714 11.7145 162.066 11.4872C162.417 11.26 162.83 11.074 163.305 10.9294C163.78 10.7848 164.297 10.7125 164.855 10.7125C166.032 10.7125 166.983 10.8984 167.706 11.2703C168.429 11.6215 168.987 12.1174 169.379 12.7578C169.792 13.3983 170.071 14.1524 170.216 15.0201C170.361 15.8878 170.433 16.8279 170.433 17.8402V26.1455H165.784V18.7699C165.784 18.336 165.764 17.8918 165.722 17.4373C165.702 16.9621 165.609 16.5283 165.443 16.1357C165.299 15.7432 165.061 15.423 164.731 15.1751C164.421 14.9271 163.966 14.8032 163.367 14.8032C162.768 14.8032 162.283 14.9168 161.911 15.1441C161.539 15.3507 161.25 15.6399 161.043 16.0118C160.857 16.363 160.733 16.7659 160.671 17.2204C160.609 17.6749 160.578 18.1501 160.578 18.6459V26.1455H155.93V2.71707H160.578Z" fill="#30AD73"/>
<path d="M82.7278 41.5016H85.9508C86.3846 41.5016 86.7978 41.4603 87.1904 41.3776C87.6036 41.295 87.9651 41.1607 88.275 40.9748C88.6056 40.7682 88.8638 40.4996 89.0498 40.169C89.2564 39.8178 89.3597 39.3839 89.3597 38.8674C89.3597 38.3096 89.2254 37.8654 88.9568 37.5349C88.7089 37.1837 88.3783 36.9151 87.9651 36.7291C87.5726 36.5432 87.1284 36.4296 86.6326 36.3882C86.1367 36.3263 85.6615 36.2953 85.207 36.2953H82.7278V41.5016ZM77.8934 32.2046H86.0438C87.1801 32.2046 88.2544 32.3079 89.2667 32.5145C90.2791 32.7211 91.1571 33.0826 91.9009 33.5991C92.6653 34.095 93.2644 34.7768 93.6983 35.6445C94.1528 36.4915 94.3801 37.5659 94.3801 38.8674C94.3801 40.1484 94.1735 41.2227 93.7603 42.0904C93.3471 42.9581 92.7789 43.6502 92.0558 44.1667C91.3327 44.6832 90.4753 45.0551 89.4836 45.2824C88.492 45.489 87.4176 45.5923 86.2607 45.5923H82.7278V54.1455H77.8934V32.2046ZM101.473 30.7171V41.1297H101.535C101.638 40.8405 101.814 40.5512 102.062 40.262C102.31 39.9728 102.609 39.7145 102.961 39.4872C103.312 39.26 103.725 39.074 104.2 38.9294C104.675 38.7848 105.192 38.7125 105.75 38.7125C106.927 38.7125 107.878 38.8984 108.601 39.2703C109.324 39.6215 109.882 40.1174 110.274 40.7578C110.687 41.3983 110.966 42.1524 111.111 43.0201C111.256 43.8878 111.328 44.8279 111.328 45.8402V54.1455H106.679V46.7699C106.679 46.336 106.659 45.8918 106.617 45.4373C106.597 44.9621 106.504 44.5283 106.339 44.1357C106.194 43.7432 105.956 43.423 105.626 43.1751C105.316 42.9271 104.861 42.8032 104.262 42.8032C103.663 42.8032 103.178 42.9168 102.806 43.1441C102.434 43.3507 102.145 43.6399 101.938 44.0118C101.752 44.363 101.628 44.7659 101.566 45.2204C101.504 45.6749 101.473 46.1501 101.473 46.6459V54.1455H96.8246V30.7171H101.473ZM114.31 34.3429C114.31 33.5991 114.568 32.969 115.085 32.4525C115.622 31.9154 116.262 31.6468 117.006 31.6468C117.75 31.6468 118.38 31.9154 118.896 32.4525C119.433 32.969 119.702 33.5991 119.702 34.3429C119.702 35.0867 119.433 35.7271 118.896 36.2643C118.38 36.7808 117.75 37.039 117.006 37.039C116.262 37.039 115.622 36.7808 115.085 36.2643C114.568 35.7271 114.31 35.0867 114.31 34.3429ZM114.682 39.0844H119.33V54.1455H114.682V39.0844ZM122.732 30.7171H127.38V54.1455H122.732V30.7171ZM130.41 34.3429C130.41 33.5991 130.668 32.969 131.185 32.4525C131.722 31.9154 132.362 31.6468 133.106 31.6468C133.85 31.6468 134.48 31.9154 134.997 32.4525C135.534 32.969 135.802 33.5991 135.802 34.3429C135.802 35.0867 135.534 35.7271 134.997 36.2643C134.48 36.7808 133.85 37.039 133.106 37.039C132.362 37.039 131.722 36.7808 131.185 36.2643C130.668 35.7271 130.41 35.0867 130.41 34.3429ZM130.782 39.0844H135.43V54.1455H130.782V39.0844ZM148.966 43.9498C148.739 43.6192 148.418 43.3507 148.005 43.1441C147.592 42.9168 147.148 42.8032 146.673 42.8032C145.495 42.8032 144.576 43.1544 143.914 43.8568C143.274 44.5593 142.954 45.4786 142.954 46.6149C142.954 47.7512 143.274 48.6706 143.914 49.373C144.576 50.0755 145.495 50.4267 146.673 50.4267C147.189 50.4267 147.633 50.3131 148.005 50.0858C148.377 49.8586 148.697 49.59 148.966 49.2801L152.034 52.503C151.311 53.2468 150.453 53.7736 149.462 54.0835C148.491 54.3728 147.561 54.5174 146.673 54.5174C145.516 54.5174 144.421 54.3314 143.388 53.9596C142.375 53.5877 141.487 53.0609 140.722 52.3791C139.979 51.6766 139.39 50.8399 138.956 49.8689C138.522 48.8979 138.305 47.8132 138.305 46.6149C138.305 45.4167 138.522 44.332 138.956 43.361C139.39 42.39 139.979 41.5636 140.722 40.8818C141.487 40.1794 142.375 39.6422 143.388 39.2703C144.421 38.8984 145.516 38.7125 146.673 38.7125C147.561 38.7125 148.491 38.8674 149.462 39.1773C150.453 39.4666 151.311 39.9831 152.034 40.7268L148.966 43.9498Z" fill="#2DA8E1"/>
</svg>
