<svg width="269" height="64" viewBox="0 0 269 64" fill="none" xmlns="http://www.w3.org/2000/svg">
<path d="M1.68445 0H4.34708V47.8709H1.68445C0.752176 47.8709 0 47.1152 0 46.1829V1.68445C0 0.752176 0.752176 0 1.68445 0Z" fill="#2DA8E1"/>
<path d="M26.5981 24.7865C26.6546 25.5034 26.7888 26.1955 26.9936 26.8559V30.0235H13.8605C12.9283 30.0235 12.1725 30.7792 12.1725 31.7115V46.1829C12.1725 47.1152 11.4204 47.8709 10.4881 47.8709H6.84375V24.7865H26.5981Z" fill="#2DA8E1"/>
<path d="M28.558 17.8509C28.4132 18.0487 28.2719 18.25 28.1413 18.4619L27.7952 19.041C27.2549 20.0368 26.8735 21.1316 26.6864 22.2934H6.84375V0H10.4881C11.4204 0 12.1725 0.752176 12.1725 1.68445V16.163C12.1725 17.0952 12.9283 17.8509 13.8605 17.8509H28.558V17.8509Z" fill="#2DA8E1"/>
<path d="M42.7366 1.68445V15.6898C41.3311 14.6586 39.6467 13.9806 37.8175 13.7864C37.4608 13.7475 37.1006 13.7299 36.7333 13.7299C36.2531 13.7299 35.7834 13.7616 35.3243 13.8287C33.5516 14.0759 31.9236 14.7822 30.5605 15.8169V1.68445C30.5605 0.752176 31.3163 0 32.2485 0H41.0522C41.9809 0 42.7366 0.752176 42.7366 1.68445Z" fill="#30AD73"/>
<path d="M42.7366 32.1246V46.1829C42.7366 47.1152 41.9809 47.8709 41.0522 47.8709H32.2485C31.3163 47.8709 30.5605 47.1152 30.5605 46.1829V31.9975C31.9236 33.0322 33.5516 33.7384 35.3243 33.9856C35.7834 34.0527 36.2531 34.0845 36.7333 34.0845C37.1006 34.0845 37.4608 34.0669 37.8175 34.028C39.6467 33.8338 41.3311 33.1558 42.7366 32.1246Z" fill="#30AD73"/>
<path d="M37.8173 15.0365V16.6044C37.7291 16.5903 37.6408 16.5797 37.549 16.5691C37.4607 16.5585 37.3724 16.5514 37.2806 16.5444C37.2241 16.5408 37.1676 16.5373 37.1111 16.5338C37.0616 16.5302 37.0157 16.5302 36.9663 16.5267C36.8886 16.5232 36.8109 16.5232 36.7332 16.5232C36.6026 16.5232 36.4719 16.5267 36.3448 16.5338H36.313C36.2141 16.5408 36.1152 16.5479 36.0164 16.5585C35.8998 16.5691 35.7833 16.5832 35.6703 16.6009C35.5538 16.615 35.4372 16.6362 35.3242 16.6574V15.0788C35.7833 15.0082 36.253 14.9694 36.7332 14.9694C37.1005 14.9694 37.4607 14.9906 37.8173 15.0365V15.0365Z" fill="white"/>
<path d="M37.8173 17.7203H35.3242V29.7515H37.8173V17.7203Z" fill="white"/>
<path d="M37.8173 31.2065V32.7779C37.4607 32.8239 37.1005 32.845 36.7332 32.845C36.253 32.845 35.7833 32.8062 35.3242 32.7356V31.1535C35.4372 31.1747 35.5538 31.1959 35.6703 31.21C35.7833 31.2277 35.8998 31.2418 36.0164 31.2524C36.1152 31.263 36.2141 31.2701 36.313 31.2771H36.3448C36.4719 31.2842 36.6026 31.2877 36.7332 31.2877C36.8109 31.2877 36.8886 31.2877 36.9663 31.2842C37.0157 31.2807 37.0616 31.2807 37.1111 31.2771C37.1676 31.2736 37.2241 31.2701 37.2806 31.2665C37.3724 31.2595 37.4607 31.2524 37.549 31.2418C37.6408 31.2312 37.7291 31.2206 37.8173 31.2065V31.2065Z" fill="white"/>
<path d="M42.5812 22.4169V25.0549H37.8846V29.7515H35.2466V25.0549H30.5605V22.4169H35.2466V17.7203H37.8846V22.4169H42.5812Z" fill="white"/>
<path d="M42.5812 22.4169V25.0549H37.8846V29.7515H35.2466V25.0549H30.5605V22.4169H35.2466V17.7203H37.8846V22.4169H42.5812Z" fill="#30AD73"/>
<path d="M42.736 17.2718C41.3977 16.0641 39.6991 15.2589 37.8169 15.0365C37.4602 14.9906 37.1 14.9694 36.7328 14.9694C36.2525 14.9694 35.7828 15.0082 35.3237 15.0788C33.4945 15.3684 31.8454 16.2124 30.56 17.4413C30.1115 17.8721 29.7054 18.3453 29.3522 18.8644C29.1686 19.1293 28.9991 19.4083 28.8473 19.6978C28.1763 20.955 27.7949 22.3852 27.7949 23.9072V47.7826L29.3522 47.8179V28.95C29.7054 29.4691 30.1115 29.9423 30.56 30.3731C31.8454 31.602 33.4945 32.446 35.3237 32.7356C35.7828 32.8062 36.2525 32.845 36.7328 32.845C37.1 32.845 37.4602 32.8239 37.8169 32.7779C39.6991 32.5555 41.3977 31.7503 42.736 30.5426C44.5441 28.9041 45.6812 26.5381 45.6812 23.9072C45.6812 21.2764 44.5441 18.9174 42.736 17.2718V17.2718ZM42.736 28.1978C42.6513 28.3143 42.5665 28.4309 42.4747 28.5403C42.397 28.6392 42.3158 28.7346 42.2311 28.8264C42.1957 28.8687 42.1569 28.9111 42.1145 28.9535L42.1039 28.9641C42.0474 29.0277 41.9874 29.0912 41.9274 29.1477C41.8991 29.176 41.8744 29.2042 41.8461 29.2289C41.7896 29.2854 41.7331 29.3384 41.6766 29.3879C41.6731 29.3914 41.6696 29.3949 41.6625 29.3984C41.6166 29.4444 41.5707 29.4867 41.5177 29.5256C41.4188 29.6139 41.3164 29.6951 41.2105 29.7763C41.1257 29.8434 41.0375 29.907 40.9492 29.967C40.8397 30.0447 40.7302 30.1188 40.6172 30.1859C40.6172 30.1895 40.6137 30.1895 40.6137 30.1895C40.5395 30.2354 40.4654 30.2778 40.3912 30.3201C40.3383 30.3519 40.2888 30.3802 40.2358 30.4084C40.1511 30.4543 40.0628 30.5002 39.971 30.5461H39.9675C39.858 30.5991 39.745 30.6485 39.632 30.698C39.5154 30.7474 39.3989 30.7933 39.2859 30.8357C39.1658 30.8781 39.0493 30.9169 38.9292 30.9558C38.8092 30.9911 38.6891 31.0264 38.5655 31.0582C38.4808 31.0794 38.396 31.097 38.3113 31.1182C38.2689 31.1253 38.23 31.1359 38.1877 31.1429C38.0641 31.1677 37.9405 31.1888 37.8169 31.2065C37.7286 31.2206 37.6403 31.2312 37.5485 31.2418C37.4602 31.2524 37.3719 31.2595 37.2801 31.2665C37.2236 31.2701 37.1671 31.2736 37.1106 31.2771C37.0612 31.2807 37.0153 31.2807 36.9658 31.2842C36.8881 31.2877 36.8104 31.2877 36.7328 31.2877C36.6021 31.2877 36.4714 31.2842 36.3443 31.2771H36.3125C36.2136 31.2701 36.1148 31.263 36.0159 31.2524C35.8994 31.2418 35.7828 31.2277 35.6698 31.21C35.5533 31.1959 35.4367 31.1747 35.3237 31.1535C35.2743 31.1429 35.2249 31.1323 35.1754 31.1217C35.126 31.1111 35.0766 31.1006 35.0271 31.0864C34.9706 31.0758 34.9176 31.0617 34.8682 31.0476C34.794 31.0299 34.7199 31.0087 34.6457 30.9876C34.5716 30.9664 34.4974 30.9416 34.4268 30.9169C34.3526 30.8957 34.282 30.871 34.2114 30.8428C34.1125 30.8075 34.0171 30.7721 33.9218 30.7298C33.83 30.6944 33.7417 30.6556 33.6534 30.6132C33.6004 30.5885 33.5439 30.5638 33.491 30.5355C33.3497 30.4649 33.212 30.3943 33.0743 30.3131C32.9966 30.2707 32.926 30.2283 32.8518 30.1824C32.8518 30.1789 32.8483 30.1789 32.8483 30.1789C32.7988 30.1506 32.7494 30.1188 32.7 30.0835C32.6293 30.0412 32.5622 29.9952 32.4987 29.9493C32.4598 29.9211 32.4174 29.8928 32.3786 29.8611C32.2939 29.801 32.2091 29.7375 32.1279 29.6704C32.1173 29.6633 32.1067 29.6562 32.0996 29.6492C32.0572 29.6139 32.0149 29.5785 31.9725 29.5397C31.9548 29.5291 31.9372 29.515 31.9231 29.5009L31.7218 29.3208C31.6194 29.2289 31.5205 29.1301 31.4216 29.0277C31.4004 29.0065 31.3792 28.9817 31.358 28.9606C31.2698 28.8652 31.1815 28.7699 31.1003 28.671C31.0261 28.5862 30.9555 28.498 30.8848 28.4061C30.8778 28.3991 30.8743 28.392 30.8672 28.385C30.8354 28.3426 30.8036 28.3002 30.7718 28.2543C30.6977 28.1554 30.6271 28.053 30.56 27.9506C29.8007 26.7888 29.3522 25.401 29.3522 23.9072C29.3522 22.4134 29.8007 21.0256 30.56 19.8638C30.6271 19.7614 30.6977 19.659 30.7718 19.5601C30.7824 19.5389 30.7966 19.5248 30.8107 19.5072C30.8248 19.4895 30.8389 19.4718 30.8495 19.4542C30.8566 19.4471 30.8601 19.4365 30.8672 19.4295C30.8743 19.4224 30.8778 19.4153 30.8848 19.4083C30.9555 19.3165 31.0261 19.2282 31.1003 19.1434C31.1921 19.034 31.2874 18.9245 31.3863 18.8221C31.3934 18.815 31.404 18.8044 31.411 18.7974C31.5099 18.6914 31.6158 18.589 31.7218 18.4937C31.7995 18.4195 31.8842 18.3453 31.9654 18.2782C32.0255 18.2288 32.082 18.1794 32.142 18.1335C32.2126 18.0734 32.2868 18.0169 32.3609 17.9604C32.4069 17.9286 32.4528 17.8969 32.4987 17.8615C32.5622 17.8156 32.6293 17.7697 32.7 17.7274C32.7494 17.692 32.7988 17.6603 32.8483 17.632C32.9224 17.5861 32.9966 17.5402 33.0743 17.4978C33.0778 17.4943 33.0849 17.4943 33.0884 17.4908C33.1343 17.466 33.1767 17.4378 33.2261 17.4131C33.2756 17.3848 33.3285 17.3566 33.378 17.3318C33.438 17.3001 33.4945 17.2718 33.5545 17.2436C33.6322 17.2047 33.7099 17.1694 33.7876 17.1376C33.8794 17.0952 33.9748 17.0564 34.0737 17.0211C34.1902 16.9716 34.3067 16.9293 34.4268 16.894C34.4974 16.8657 34.5716 16.8445 34.6457 16.8233C34.7199 16.8021 34.794 16.781 34.8682 16.7633C34.9176 16.7456 34.9706 16.735 35.0271 16.7245C35.0766 16.7139 35.126 16.6997 35.1754 16.6891C35.2249 16.6785 35.2743 16.668 35.3237 16.6574C35.4367 16.6362 35.5533 16.615 35.6698 16.6009C35.7828 16.5832 35.8994 16.5691 36.0159 16.5585C36.1148 16.5479 36.2136 16.5408 36.3125 16.5338H36.3443C36.4714 16.5267 36.6021 16.5232 36.7328 16.5232C36.8104 16.5232 36.8881 16.5232 36.9658 16.5267C37.0153 16.5267 37.0612 16.5267 37.1106 16.5338C37.1671 16.5373 37.2236 16.5408 37.2801 16.5444C37.3719 16.5514 37.4602 16.5585 37.5485 16.5691C37.6403 16.5797 37.7286 16.5903 37.8169 16.6044C37.9405 16.622 38.0641 16.6432 38.1877 16.668C38.23 16.675 38.2689 16.6856 38.3113 16.6927C38.396 16.7139 38.4808 16.7315 38.5655 16.7527C38.6891 16.7845 38.8092 16.8198 38.9292 16.8551C39.0069 16.8798 39.0882 16.9046 39.1658 16.9328C39.3036 16.9822 39.4413 17.0317 39.5755 17.0882C39.7097 17.1447 39.8403 17.2047 39.971 17.2683C40.0628 17.3142 40.1511 17.3601 40.2358 17.406C40.2888 17.4343 40.3383 17.4625 40.3912 17.4943C40.4654 17.5367 40.5395 17.579 40.6137 17.6249C40.6137 17.6249 40.6172 17.6249 40.6172 17.6285C40.7302 17.6956 40.8397 17.7697 40.9492 17.8474C41.0375 17.9075 41.1257 17.971 41.2105 18.0381C41.3164 18.1193 41.4188 18.2006 41.5177 18.2888C41.5707 18.3277 41.6166 18.3701 41.6625 18.416C41.6696 18.4195 41.6731 18.423 41.6766 18.4266C41.7331 18.476 41.7896 18.529 41.8461 18.5855C41.8885 18.6243 41.9344 18.6667 41.9733 18.7126C42.0439 18.7797 42.111 18.8503 42.1746 18.9245C42.1957 18.9457 42.2134 18.9669 42.2311 18.988C42.3158 19.0799 42.397 19.1752 42.4747 19.2741C42.5665 19.3836 42.6513 19.5001 42.736 19.6166C43.6083 20.8279 44.1168 22.311 44.1168 23.9072C44.1168 25.5034 43.6083 26.9865 42.736 28.1978V28.1978Z" fill="#2DA8E1"/>
<path d="M35.2364 59.9657C35.127 59.4396 35.0034 58.9063 34.8833 58.3837C34.8339 58.1577 34.7774 57.9246 34.7244 57.6986C34.6432 57.3314 34.5655 56.9606 34.4843 56.5968C34.5796 56.5686 34.6432 56.5368 34.7244 56.5086C34.7032 56.4203 34.6891 56.3426 34.6749 56.2614C34.5196 55.6787 34.3607 55.0995 34.2053 54.5169C33.8415 53.1185 33.5131 51.7095 32.8881 50.3817C32.4573 49.4706 31.8958 48.6407 30.96 48.1216C30.7128 47.991 30.4585 47.8815 30.1972 47.7791C29.9182 47.6696 29.6357 47.5672 29.3638 47.4577C29.3638 47.4577 29.3567 47.4542 29.3532 47.4471C29.3144 47.4224 29.3144 47.3412 29.3144 47.2706V46.3489C29.3144 45.8898 29.3073 45.4237 29.3144 44.9646L28.5269 44.9434L28.2938 44.9363H28.2797C28.2691 45.459 28.2691 45.8545 28.262 46.3948V47.4083C28.0961 47.433 27.9407 47.4613 27.7959 47.493C26.733 47.719 26.1538 48.0757 25.5005 48.8455C24.8861 49.5801 24.4058 50.3887 23.9962 51.2363C23.3111 52.6665 22.7779 54.1461 22.3435 55.654C22.2093 56.0919 22.0998 56.5368 21.9762 56.9818C22.0786 57.0206 22.1528 57.0418 22.2164 57.063C22.1387 57.4267 22.0575 57.7834 21.9762 58.1506V58.1577C21.948 58.2954 21.9197 58.4261 21.8915 58.5567C21.782 59.0547 21.6549 59.542 21.556 60.047C21.4289 60.6508 21.5242 61.2194 21.955 61.7138C22.4282 62.254 23.078 62.473 23.7702 62.6213C23.8655 62.6354 23.9608 62.7131 24.0103 62.7873C24.1374 62.978 24.2893 63.1228 24.5223 63.1439C24.7483 63.1651 24.9814 63.1757 25.2074 63.1439C25.5288 63.1086 25.7336 62.8756 25.7689 62.5683C25.8148 62.2329 25.6665 61.9504 25.391 61.8338C24.9178 61.6361 24.2963 61.7738 23.9608 62.1764C23.6466 62.081 23.297 61.9998 22.9897 61.8621C22.2835 61.5478 21.948 61.0075 22.0716 60.2942C22.1599 59.7821 22.2693 59.2807 22.3788 58.7757C22.4812 58.3237 22.5836 57.8787 22.679 57.4267C22.7143 57.2395 22.7708 57.1053 22.9968 57.1724C23.0145 57.1513 23.0215 57.1513 23.0286 57.1442C23.071 56.9818 23.1133 56.8158 23.1592 56.6533C23.7137 54.584 24.4058 52.557 25.5005 50.6677C25.8501 50.0638 26.2492 49.4847 26.7824 48.9974C27.2273 48.5877 27.7394 48.3688 28.3786 48.4077C29.8759 48.4712 30.9988 49.0574 31.691 50.3322C32.2807 51.4199 32.595 52.5852 32.9093 53.7506C33.1635 54.7146 33.4178 55.6857 33.6826 56.6533C33.6897 56.6851 33.7109 56.7204 33.7321 56.7557C33.8133 56.7416 33.8804 56.7275 33.9651 56.7134C34.0111 56.9111 34.0464 57.0842 34.0817 57.2678C34.2159 57.8434 34.3465 58.4119 34.4631 58.9876V58.9946C34.5584 59.3972 34.6361 59.7892 34.7173 60.1917C34.8692 60.951 34.5478 61.5195 33.8133 61.8479C33.6014 61.9433 33.3684 62.0069 33.1423 62.074C32.8881 62.1446 32.6303 62.2541 32.429 61.9433C32.369 61.8409 32.1642 61.8091 32.0194 61.7738C31.8958 61.7526 31.7581 61.7667 31.6239 61.7667C31.1436 61.7738 30.8823 62.021 30.8823 62.4659C30.8823 62.9109 31.1436 63.151 31.6309 63.1581C31.7404 63.1651 31.8569 63.1651 31.977 63.1581C32.2454 63.151 32.4502 63.0345 32.5879 62.8085C32.6374 62.7378 32.7398 62.6637 32.8351 62.6354C33.1212 62.5542 33.4249 62.5189 33.7109 62.4306C34.9151 62.0492 35.4836 61.1311 35.2364 59.9657V59.9657ZM22.5448 57.349C22.453 57.7692 22.3576 58.1859 22.2623 58.6097C22.2022 58.8428 22.1528 59.0758 22.0998 59.3089C22.0292 59.6373 21.948 59.9657 21.9056 60.3012C21.8032 61.0216 22.1599 61.6502 22.8591 61.9645C23.1592 62.0951 23.4877 62.1587 23.8019 62.2682C23.8726 62.3 23.9255 62.3635 23.9608 62.4377C23.4876 62.4377 23.0639 62.307 22.686 62.0881C21.8314 61.6078 21.5313 60.9651 21.722 60.0399C21.8385 59.4678 21.9621 58.9063 22.0928 58.3449C22.1881 57.9317 22.2835 57.5079 22.3788 57.0912C22.6401 57.07 22.5695 57.2289 22.5448 57.349V57.349ZM33.7462 62.247C33.4037 62.3706 33.047 62.4377 32.6974 62.533C32.6762 62.4942 32.655 62.4589 32.6232 62.4236C32.6903 62.3776 32.7398 62.307 32.8139 62.3C33.3472 62.2046 33.8557 62.0669 34.2936 61.7385C34.7103 61.4312 34.9575 61.0287 34.8939 60.5272C34.8268 59.9516 34.7032 59.3831 34.5937 58.8216C34.5867 58.7827 34.5796 58.7545 34.5725 58.7192C34.4419 58.0765 34.2936 57.4408 34.1488 56.8017C34.1205 56.6604 34.17 56.6251 34.3218 56.6321C34.4101 57.0029 34.4984 57.3702 34.5796 57.7481C34.6361 58.027 34.6961 58.3025 34.7526 58.5815V58.5885C34.8762 59.1253 34.9857 59.6514 35.0952 60.1988C35.3 61.2547 34.6432 61.9186 33.7462 62.247V62.247Z" fill="#2DA8E1"/>
<path d="M61.5905 12.1267H67.3216V21.8256H78.4534V12.1267H84.1845V38.1374H78.4534V26.8955H67.3216V38.1374H61.5905V12.1267ZM101.003 27.1894C101.027 26.2587 100.721 25.4627 100.084 24.8014C99.4477 24.1401 98.6272 23.8094 97.623 23.8094C97.0107 23.8094 96.4719 23.9074 96.0065 24.1034C95.5412 24.2993 95.1371 24.5565 94.7942 24.8749C94.4758 25.1688 94.2186 25.5239 94.0227 25.9403C93.8512 26.3321 93.7532 26.7485 93.7287 27.1894H101.003ZM105.669 35.0514C104.787 36.178 103.673 37.0475 102.326 37.6598C100.978 38.2721 99.5824 38.5782 98.1373 38.5782C96.7658 38.5782 95.4677 38.3578 94.2431 37.917C93.043 37.4761 91.9898 36.8515 91.0836 36.0433C90.2019 35.2106 89.5038 34.2186 88.9895 33.0675C88.4752 31.9164 88.218 30.6305 88.218 29.21C88.218 27.7894 88.4752 26.5036 88.9895 25.3525C89.5038 24.2013 90.2019 23.2216 91.0836 22.4134C91.9898 21.5807 93.043 20.9439 94.2431 20.503C95.4677 20.0621 96.7658 19.8417 98.1373 19.8417C99.4109 19.8417 100.562 20.0621 101.591 20.503C102.644 20.9439 103.526 21.5807 104.236 22.4134C104.971 23.2216 105.534 24.2013 105.926 25.3525C106.318 26.5036 106.514 27.7894 106.514 29.21V30.9367H93.7287C93.9492 31.9898 94.4268 32.8348 95.1615 33.4716C95.8963 34.0839 96.8025 34.3901 97.8802 34.3901C98.7864 34.3901 99.5456 34.1941 100.158 33.8023C100.795 33.3859 101.346 32.8593 101.811 32.2225L105.669 35.0514ZM119.711 30.3121C119.294 30.3121 118.768 30.3366 118.131 30.3856C117.519 30.4101 116.919 30.5081 116.331 30.6795C115.768 30.851 115.278 31.1081 114.861 31.451C114.469 31.7939 114.274 32.2715 114.274 32.8838C114.274 33.5451 114.555 34.0349 115.118 34.3533C115.682 34.6717 116.27 34.8309 116.882 34.8309C117.421 34.8309 117.935 34.7575 118.425 34.6105C118.939 34.4636 119.392 34.2554 119.784 33.986C120.176 33.7165 120.482 33.3737 120.703 32.9573C120.948 32.5409 121.07 32.0511 121.07 31.4878V30.3121H119.711ZM121.07 35.8964H120.997C120.384 36.8515 119.564 37.5373 118.535 37.9537C117.531 38.3701 116.466 38.5782 115.339 38.5782C114.506 38.5782 113.698 38.4558 112.914 38.2109C112.155 37.9904 111.481 37.6475 110.894 37.1822C110.306 36.7168 109.84 36.1413 109.498 35.4555C109.155 34.7697 108.983 33.9737 108.983 33.0675C108.983 32.0388 109.167 31.1694 109.534 30.4591C109.926 29.7488 110.44 29.161 111.077 28.6956C111.739 28.2303 112.486 27.8752 113.318 27.6302C114.151 27.3608 115.008 27.1649 115.89 27.0424C116.796 26.92 117.69 26.8465 118.572 26.822C119.478 26.7975 120.311 26.7853 121.07 26.7853C121.07 25.8056 120.715 25.0341 120.005 24.4707C119.319 23.8829 118.498 23.589 117.543 23.589C116.637 23.589 115.804 23.785 115.045 24.1768C114.31 24.5442 113.649 25.0585 113.061 25.7198L110.122 22.7073C111.151 21.7521 112.351 21.0418 113.722 20.5765C115.094 20.0866 116.515 19.8417 117.984 19.8417C119.601 19.8417 120.923 20.0499 121.952 20.4663C123.005 20.8581 123.838 21.4459 124.45 22.2297C125.087 23.0134 125.528 23.9809 125.773 25.132C126.018 26.2587 126.14 27.569 126.14 29.063V38.1374H121.07V35.8964ZM129.671 10.3632H135.182V38.1374H129.671V10.3632ZM151.301 24.6912H146.452V30.6428C146.452 31.1326 146.476 31.5857 146.525 32.0021C146.574 32.394 146.684 32.7369 146.856 33.0308C147.027 33.3247 147.284 33.5573 147.627 33.7288C147.995 33.8757 148.472 33.9492 149.06 33.9492C149.354 33.9492 149.734 33.9247 150.199 33.8757C150.689 33.8023 151.056 33.6553 151.301 33.4349V38.0272C150.689 38.2476 150.052 38.3946 149.391 38.468C148.729 38.5415 148.08 38.5782 147.444 38.5782C146.513 38.5782 145.656 38.4803 144.872 38.2843C144.088 38.0884 143.402 37.7823 142.815 37.3659C142.227 36.925 141.761 36.3617 141.419 35.6759C141.1 34.9901 140.941 34.1574 140.941 33.1777V24.6912H137.414V20.2826H140.941V14.9922H146.452V20.2826H151.301V24.6912ZM159.612 10.3632V22.7073H159.686C159.808 22.3644 160.016 22.0215 160.31 21.6786C160.604 21.3357 160.959 21.0296 161.376 20.7602C161.792 20.4908 162.282 20.2703 162.845 20.0989C163.409 19.9274 164.021 19.8417 164.682 19.8417C166.078 19.8417 167.205 20.0621 168.062 20.503C168.919 20.9194 169.581 21.5072 170.046 22.2664C170.536 23.0257 170.866 23.9197 171.038 24.9483C171.209 25.977 171.295 27.0914 171.295 28.2915V38.1374H165.784V29.3937C165.784 28.8793 165.76 28.3528 165.711 27.8139C165.686 27.2506 165.576 26.7363 165.38 26.2709C165.209 25.8056 164.927 25.4259 164.535 25.132C164.168 24.8381 163.629 24.6912 162.919 24.6912C162.208 24.6912 161.633 24.8259 161.192 25.0953C160.751 25.3402 160.408 25.6831 160.163 26.124C159.943 26.5403 159.796 27.0179 159.723 27.5568C159.649 28.0956 159.612 28.6589 159.612 29.2467V38.1374H154.102V10.3632H159.612Z" fill="#30AD73"/>
<path d="M181.627 23.1482H185.447C185.962 23.1482 186.452 23.0992 186.917 23.0012C187.407 22.9032 187.835 22.744 188.203 22.5236C188.595 22.2787 188.901 21.9603 189.121 21.5684C189.366 21.152 189.489 20.6377 189.489 20.0254C189.489 19.3641 189.329 18.8375 189.011 18.4457C188.717 18.0293 188.325 17.7109 187.835 17.4905C187.37 17.27 186.843 17.1353 186.256 17.0863C185.668 17.0129 185.104 16.9761 184.566 16.9761H181.627V23.1482ZM175.895 12.1267H185.558C186.905 12.1267 188.178 12.2491 189.378 12.494C190.579 12.739 191.619 13.1676 192.501 13.7799C193.407 14.3677 194.118 15.1759 194.632 16.2046C195.171 17.2088 195.44 18.4824 195.44 20.0254C195.44 21.5439 195.195 22.8175 194.705 23.8462C194.216 24.8749 193.542 25.6953 192.685 26.3077C191.828 26.92 190.811 27.3608 189.636 27.6302C188.46 27.8752 187.186 27.9976 185.815 27.9976H181.627V38.1374H175.895V12.1267ZM203.849 10.3632V22.7073H203.922C204.045 22.3644 204.253 22.0215 204.547 21.6786C204.841 21.3357 205.196 21.0296 205.612 20.7602C206.029 20.4908 206.519 20.2703 207.082 20.0989C207.645 19.9274 208.258 19.8417 208.919 19.8417C210.315 19.8417 211.442 20.0621 212.299 20.503C213.156 20.9194 213.817 21.5072 214.283 22.2664C214.773 23.0257 215.103 23.9197 215.275 24.9483C215.446 25.977 215.532 27.0914 215.532 28.2915V38.1374H210.021V29.3937C210.021 28.8793 209.997 28.3528 209.948 27.8139C209.923 27.2506 209.813 26.7363 209.617 26.2709C209.445 25.8056 209.164 25.4259 208.772 25.132C208.405 24.8381 207.866 24.6912 207.155 24.6912C206.445 24.6912 205.87 24.8259 205.429 25.0953C204.988 25.3402 204.645 25.6831 204.4 26.124C204.18 26.5403 204.033 27.0179 203.959 27.5568C203.886 28.0956 203.849 28.6589 203.849 29.2467V38.1374H198.338V10.3632H203.849ZM219.067 14.6616C219.067 13.7799 219.373 13.0329 219.985 12.4206C220.622 11.7838 221.381 11.4654 222.263 11.4654C223.145 11.4654 223.892 11.7838 224.504 12.4206C225.141 13.0329 225.459 13.7799 225.459 14.6616C225.459 15.5433 225.141 16.3026 224.504 16.9394C223.892 17.5517 223.145 17.8578 222.263 17.8578C221.381 17.8578 220.622 17.5517 219.985 16.9394C219.373 16.3026 219.067 15.5433 219.067 14.6616ZM219.508 20.2826H225.018V38.1374H219.508V20.2826ZM229.051 10.3632H234.562V38.1374H229.051V10.3632ZM238.153 14.6616C238.153 13.7799 238.46 13.0329 239.072 12.4206C239.709 11.7838 240.468 11.4654 241.35 11.4654C242.231 11.4654 242.978 11.7838 243.591 12.4206C244.227 13.0329 244.546 13.7799 244.546 14.6616C244.546 15.5433 244.227 16.3026 243.591 16.9394C242.978 17.5517 242.231 17.8578 241.35 17.8578C240.468 17.8578 239.709 17.5517 239.072 16.9394C238.46 16.3026 238.153 15.5433 238.153 14.6616ZM238.594 20.2826H244.105V38.1374H238.594V20.2826ZM260.151 26.0505C259.882 25.6586 259.502 25.3402 259.012 25.0953C258.522 24.8259 257.996 24.6912 257.432 24.6912C256.036 24.6912 254.946 25.1075 254.163 25.9403C253.403 26.773 253.024 27.8629 253.024 29.21C253.024 30.5571 253.403 31.647 254.163 32.4797C254.946 33.3124 256.036 33.7288 257.432 33.7288C258.045 33.7288 258.571 33.5941 259.012 33.3247C259.453 33.0553 259.833 32.7369 260.151 32.3695L263.788 36.1903C262.931 37.072 261.914 37.6965 260.739 38.0639C259.588 38.4068 258.486 38.5782 257.432 38.5782C256.061 38.5782 254.763 38.3578 253.538 37.917C252.338 37.4761 251.285 36.8515 250.379 36.0433C249.497 35.2106 248.799 34.2186 248.285 33.0675C247.77 31.9164 247.513 30.6305 247.513 29.21C247.513 27.7894 247.77 26.5036 248.285 25.3525C248.799 24.2013 249.497 23.2216 250.379 22.4134C251.285 21.5807 252.338 20.9439 253.538 20.503C254.763 20.0621 256.061 19.8417 257.432 19.8417C258.486 19.8417 259.588 20.0254 260.739 20.3928C261.914 20.7357 262.931 21.348 263.788 22.2297L260.151 26.0505Z" fill="#2DA8E1"/>
</svg>
