<svg width="25" height="24" viewBox="0 0 25 24" fill="none" xmlns="http://www.w3.org/2000/svg">
<path d="M12.4033 17C12.9338 17 13.4425 16.7893 13.8175 16.4142C14.1926 16.0391 14.4033 15.5304 14.4033 15C14.4033 14.4696 14.1926 13.9609 13.8175 13.5858C13.4425 13.2107 12.9338 13 12.4033 13C11.8729 13 11.3642 13.2107 10.9891 13.5858C10.614 13.9609 10.4033 14.4696 10.4033 15C10.4033 15.5304 10.614 16.0391 10.9891 16.4142C11.3642 16.7893 11.8729 17 12.4033 17ZM18.4033 8C18.9338 8 19.4425 8.21071 19.8175 8.58579C20.1926 8.96086 20.4033 9.46957 20.4033 10V20C20.4033 20.5304 20.1926 21.0391 19.8175 21.4142C19.4425 21.7893 18.9338 22 18.4033 22H6.40332C5.87289 22 5.36418 21.7893 4.98911 21.4142C4.61403 21.0391 4.40332 20.5304 4.40332 20V10C4.40332 9.46957 4.61403 8.96086 4.98911 8.58579C5.36418 8.21071 5.87289 8 6.40332 8H7.40332V6C7.40332 4.67392 7.9301 3.40215 8.86779 2.46447C9.80547 1.52678 11.0772 1 12.4033 1C13.0599 1 13.7101 1.12933 14.3167 1.3806C14.9234 1.63188 15.4746 2.00017 15.9389 2.46447C16.4031 2.92876 16.7714 3.47995 17.0227 4.08658C17.274 4.69321 17.4033 5.34339 17.4033 6V8H18.4033ZM12.4033 3C11.6077 3 10.8446 3.31607 10.282 3.87868C9.71939 4.44129 9.40332 5.20435 9.40332 6V8H15.4033V6C15.4033 5.20435 15.0873 4.44129 14.5246 3.87868C13.962 3.31607 13.199 3 12.4033 3Z" fill="white"/>
</svg>
