<svg width="33" height="33" viewBox="0 0 33 33" fill="none" xmlns="http://www.w3.org/2000/svg">
<path d="M25.8285 4.31299C26.5357 4.31299 27.214 4.59394 27.7141 5.09404C28.2142 5.59413 28.4951 6.27241 28.4951 6.97966V25.6463C28.4951 26.3536 28.2142 27.0318 27.7141 27.5319C27.214 28.032 26.5357 28.313 25.8285 28.313H7.16178C6.45454 28.313 5.77626 28.032 5.27617 27.5319C4.77607 27.0318 4.49512 26.3536 4.49512 25.6463V6.97966C4.49512 6.27241 4.77607 5.59413 5.27617 5.09404C5.77626 4.59394 6.45454 4.31299 7.16178 4.31299H25.8285ZM25.1618 24.9797V17.913C25.1618 16.7602 24.7038 15.6546 23.8887 14.8394C23.0735 14.0243 21.9679 13.5663 20.8151 13.5663C19.6818 13.5663 18.3618 14.2597 17.7218 15.2997V13.8197H14.0018V24.9797H17.7218V18.4063C17.7218 17.3797 18.5485 16.5397 19.5751 16.5397C20.0702 16.5397 20.545 16.7363 20.8951 17.0864C21.2451 17.4365 21.4418 17.9113 21.4418 18.4063V24.9797H25.1618ZM9.66845 11.7263C10.2625 11.7263 10.8323 11.4903 11.2524 11.0702C11.6725 10.6502 11.9085 10.0804 11.9085 9.48632C11.9085 8.24632 10.9085 7.23299 9.66845 7.23299C9.07083 7.23299 8.49769 7.47039 8.0751 7.89297C7.65252 8.31556 7.41512 8.8887 7.41512 9.48632C7.41512 10.7263 8.42845 11.7263 9.66845 11.7263ZM11.5218 24.9797V13.8197H7.82845V24.9797H11.5218Z" fill="#FBFBFB"/>
</svg>
