<svg width="25" height="24" viewBox="0 0 25 24" fill="none" xmlns="http://www.w3.org/2000/svg">
<g clip-path="url(#clip0_1336_7413)">
<path fill-rule="evenodd" clip-rule="evenodd" d="M0.504883 5.625C0.504883 5.32663 0.623409 5.04048 0.834388 4.8295C1.04537 4.61853 1.33151 4.5 1.62988 4.5H23.3799C23.6783 4.5 23.9644 4.61853 24.1754 4.8295C24.3864 5.04048 24.5049 5.32663 24.5049 5.625C24.5049 5.92337 24.3864 6.20952 24.1754 6.4205C23.9644 6.63147 23.6783 6.75 23.3799 6.75H1.62988C1.33151 6.75 1.04537 6.63147 0.834388 6.4205C0.623409 6.20952 0.504883 5.92337 0.504883 5.625ZM0.504883 12C0.504883 11.7016 0.623409 11.4155 0.834388 11.2045C1.04537 10.9935 1.33151 10.875 1.62988 10.875H23.3799C23.6783 10.875 23.9644 10.9935 24.1754 11.2045C24.3864 11.4155 24.5049 11.7016 24.5049 12C24.5049 12.2984 24.3864 12.5845 24.1754 12.7955C23.9644 13.0065 23.6783 13.125 23.3799 13.125H1.62988C1.33151 13.125 1.04537 13.0065 0.834388 12.7955C0.623409 12.5845 0.504883 12.2984 0.504883 12ZM1.62988 17.25C1.33151 17.25 1.04537 17.3685 0.834388 17.5795C0.623409 17.7905 0.504883 18.0766 0.504883 18.375C0.504883 18.6734 0.623409 18.9595 0.834388 19.1705C1.04537 19.3815 1.33151 19.5 1.62988 19.5H23.3799C23.6783 19.5 23.9644 19.3815 24.1754 19.1705C24.3864 18.9595 24.5049 18.6734 24.5049 18.375C24.5049 18.0766 24.3864 17.7905 24.1754 17.5795C23.9644 17.3685 23.6783 17.25 23.3799 17.25H1.62988Z" fill="black"/>
</g>
<defs>
<clipPath id="clip0_1336_7413">
<rect width="24" height="24" fill="white" transform="translate(0.504883)"/>
</clipPath>
</defs>
</svg>
