<svg width="25" height="25" viewBox="0 0 25 25" fill="none" xmlns="http://www.w3.org/2000/svg">
<path d="M22.4951 17.1721V20.1721C22.4962 20.4506 22.4391 20.7262 22.3276 20.9814C22.216 21.2366 22.0523 21.4656 21.8471 21.6539C21.6419 21.8422 21.3996 21.9855 21.1358 22.0748C20.872 22.164 20.5924 22.1971 20.3151 22.1721C17.2379 21.8377 14.282 20.7862 11.6851 19.1021C9.26888 17.5667 7.22039 15.5182 5.68505 13.1021C3.99503 10.4933 2.94329 7.52304 2.61505 4.43205C2.59006 4.15552 2.62293 3.87681 2.71155 3.61367C2.80018 3.35054 2.94262 3.10874 3.12982 2.90367C3.31701 2.6986 3.54486 2.53476 3.79884 2.42257C4.05283 2.31038 4.32739 2.25231 4.60505 2.25205H7.60505C8.09036 2.24727 8.56084 2.41913 8.92881 2.73558C9.29678 3.05204 9.53713 3.4915 9.60505 3.97205C9.73167 4.93212 9.9665 5.87478 10.3051 6.78205C10.4396 7.13997 10.4687 7.52896 10.389 7.90293C10.3092 8.2769 10.1239 8.62016 9.85505 8.89205L8.58505 10.162C10.0086 12.6656 12.0815 14.7385 14.5851 16.1621L15.8551 14.8921C16.1269 14.6232 16.4702 14.4379 16.8442 14.3581C17.2181 14.2784 17.6071 14.3075 17.965 14.442C18.8723 14.7806 19.815 15.0154 20.7751 15.1421C21.2608 15.2106 21.7045 15.4553 22.0216 15.8295C22.3387 16.2038 22.5072 16.6816 22.4951 17.1721Z" stroke="#FBFBFB" stroke-width="2" stroke-linecap="round" stroke-linejoin="round"/>
</svg>
