<svg width="69" height="17" viewBox="0 0 69 17" fill="none" xmlns="http://www.w3.org/2000/svg">
<path d="M8.49528 2.31348C4.81528 2.31348 1.82861 5.30014 1.82861 8.98014C1.82861 12.6601 4.81528 15.6468 8.49528 15.6468C12.1753 15.6468 15.1619 12.6601 15.1619 8.98014C15.1619 5.30014 12.1753 2.31348 8.49528 2.31348ZM8.49528 14.3135C5.54861 14.3135 3.16195 11.9268 3.16195 8.98014C3.16195 6.03348 5.54861 3.64681 8.49528 3.64681C11.4419 3.64681 13.8286 6.03348 13.8286 8.98014C13.8286 11.9268 11.4419 14.3135 8.49528 14.3135Z" fill="#414042" fill-opacity="0.75"/>
<path d="M8.49495 12.3132C10.3359 12.3132 11.8283 10.8208 11.8283 8.97982C11.8283 7.13887 10.3359 5.64648 8.49495 5.64648C6.65401 5.64648 5.16162 7.13887 5.16162 8.97982C5.16162 10.8208 6.65401 12.3132 8.49495 12.3132Z" fill="#414042" fill-opacity="0.75"/>
<path d="M34.4953 2.31348C30.8153 2.31348 27.8286 5.30014 27.8286 8.98014C27.8286 12.6601 30.8153 15.6468 34.4953 15.6468C38.1753 15.6468 41.1619 12.6601 41.1619 8.98014C41.1619 5.30014 38.1753 2.31348 34.4953 2.31348ZM34.4953 14.3135C31.5486 14.3135 29.1619 11.9268 29.1619 8.98014C29.1619 6.03348 31.5486 3.64681 34.4953 3.64681C37.4419 3.64681 39.8286 6.03348 39.8286 8.98014C39.8286 11.9268 37.4419 14.3135 34.4953 14.3135Z" fill="#414042" fill-opacity="0.75"/>
<path d="M60.4953 2.31348C56.8153 2.31348 53.8286 5.30014 53.8286 8.98014C53.8286 12.6601 56.8153 15.6468 60.4953 15.6468C64.1753 15.6468 67.1619 12.6601 67.1619 8.98014C67.1619 5.30014 64.1753 2.31348 60.4953 2.31348ZM60.4953 14.3135C57.5486 14.3135 55.1619 11.9268 55.1619 8.98014C55.1619 6.03348 57.5486 3.64681 60.4953 3.64681C63.4419 3.64681 65.8286 6.03348 65.8286 8.98014C65.8286 11.9268 63.4419 14.3135 60.4953 14.3135Z" fill="#414042" fill-opacity="0.75"/>
</svg>
