<svg width="53" height="52" viewBox="0 0 53 52" fill="none" xmlns="http://www.w3.org/2000/svg">
<path d="M2.42749 0.346191C1.36082 0.346191 0.495117 1.2119 0.495117 2.27857V39.6378C0.495117 43.5438 3.67452 46.7232 7.58049 46.7232H23.7415C22.9776 45.5303 22.3592 44.233 21.9148 42.8584H7.58049C5.804 42.8584 4.35987 41.4143 4.35987 39.6378V4.21094H43.0074V21.7659C44.3819 22.2103 45.6792 22.8273 46.8721 23.5926V2.27857C46.8721 1.2119 46.0064 0.346191 44.9397 0.346191H2.42749ZM19.1747 9.36394C18.4779 9.35409 17.8297 9.72022 17.4783 10.3222C17.127 10.9241 17.127 11.6685 17.4783 12.2705C17.8297 12.8724 18.4779 13.2385 19.1747 13.2287H28.1925C28.8894 13.2385 29.5376 12.8724 29.8889 12.2705C30.2402 11.6685 30.2402 10.9241 29.8889 10.3222C29.5376 9.72022 28.8894 9.35409 28.1925 9.36394H19.1747ZM37.8544 23.5347C30.0282 23.5347 23.6836 29.8793 23.6836 37.7054C23.6836 45.5316 30.0282 51.8762 37.8544 51.8762C45.6805 51.8762 52.0251 45.5316 52.0251 37.7054C52.0251 29.8793 45.6805 23.5347 37.8544 23.5347ZM37.8544 27.3994C38.5668 27.3994 39.1426 27.9766 39.1426 28.6877V29.9961C41.1317 30.0966 42.4004 31.232 42.801 31.853C43.1875 32.4507 43.0163 33.2492 42.4186 33.6344C41.8196 34.017 41.0211 33.8497 40.6372 33.2519C40.6333 33.2519 40.078 32.5524 38.8684 32.5524H36.8882C35.8228 32.5524 34.9558 33.4194 34.9558 34.4848C34.9558 35.5502 35.8228 36.4172 36.8882 36.4172H39.1426C41.6289 36.4172 43.6515 38.4397 43.6515 40.9261C43.6515 43.4124 41.6289 45.4349 39.1426 45.4349V46.7232C39.1426 47.4343 38.5668 48.0114 37.8544 48.0114C37.142 48.0114 36.5661 47.4343 36.5661 46.7232V45.4299C34.9635 45.4183 33.4975 44.8321 32.4347 43.7693C31.931 43.2656 31.931 42.4538 32.4347 41.9501C32.9384 41.4464 33.7526 41.4464 34.2563 41.9501C34.6711 42.3637 35.4171 42.8584 36.6139 42.8584H39.1426C40.208 42.8584 41.075 41.9914 41.075 40.9261C41.075 39.8607 40.208 38.9937 39.1426 38.9937H36.8882C34.4019 38.9937 32.3793 36.9711 32.3793 34.4848C32.3793 32.1093 34.2331 30.1774 36.5661 30.0086V28.6877C36.5661 27.9766 37.142 27.3994 37.8544 27.3994Z" fill="url(#paint0_linear_673_11236)"/>
<defs>
<linearGradient id="paint0_linear_673_11236" x1="61.3271" y1="-10.1236" x2="-0.672724" y2="51.8762" gradientUnits="userSpaceOnUse">
<stop stop-color="#2DA8E1"/>
<stop offset="0.947699" stop-color="#30AD73"/>
</linearGradient>
</defs>
</svg>
