<svg width="33" height="33" viewBox="0 0 33 33" fill="none" xmlns="http://www.w3.org/2000/svg">
<path d="M21.0311 28.313V19.025H24.1418L24.6071 15.4143H21.0311V13.1103C21.0311 12.065 21.3218 11.3517 22.8204 11.3517H24.7325V8.12232C23.8068 8.02411 22.8766 7.97649 21.9458 7.97966C19.1898 7.97966 17.3031 9.66232 17.3031 12.753V15.4143H14.1858V19.025H17.3031V28.313H5.82845C5.47483 28.313 5.13569 28.1725 4.88564 27.9225C4.63559 27.6724 4.49512 27.3333 4.49512 26.9797V5.64632C4.49512 5.2927 4.63559 4.95356 4.88564 4.70351C5.13569 4.45346 5.47483 4.31299 5.82845 4.31299H27.1618C27.5154 4.31299 27.8545 4.45346 28.1046 4.70351C28.3546 4.95356 28.4951 5.2927 28.4951 5.64632V26.9797C28.4951 27.3333 28.3546 27.6724 28.1046 27.9225C27.8545 28.1725 27.5154 28.313 27.1618 28.313H21.0311Z" fill="#FBFBFB"/>
</svg>
