<svg width="35" height="40" viewBox="0 0 35 40" fill="none" xmlns="http://www.w3.org/2000/svg">
<path fill-rule="evenodd" clip-rule="evenodd" d="M16.7026 40V25.0614L9.76273 22.2292C9.42888 22.0929 9.04758 22.1415 8.75856 22.3574L7.6374 22.9656L8.90152 27.6836L9.02545 27.6505C10.3968 27.2833 11.8061 28.0971 12.174 29.4681C12.174 29.4681 12.8316 31.9236 13.0409 32.7043C13.1761 33.2081 12.8773 33.7251 12.3741 33.8603C12.0624 33.9437 11.7179 34.0357 11.4211 34.1153C11.0108 34.2252 10.5892 33.9819 10.4794 33.5716C10.4742 33.5514 10.4687 33.5316 10.4636 33.5115C10.3534 33.1011 10.597 32.6796 11.0073 32.5697C11.1856 32.5217 11.3262 32.484 11.3262 32.484L10.6286 29.8819C10.4897 29.364 9.95745 29.0566 9.4401 29.1955C8.89 29.3427 8.19667 29.5285 7.64663 29.6763C7.12873 29.8146 6.82163 30.3475 6.96023 30.8648L7.65784 33.4672C7.65784 33.4672 7.79788 33.4296 7.97674 33.3815C8.38708 33.2717 8.80866 33.5155 8.91849 33.9256C8.92367 33.9457 8.92913 33.9656 8.93431 33.9851C9.04445 34.3957 8.80088 34.8173 8.39054 34.9272C8.09378 35.0068 7.74929 35.0991 7.43789 35.1822C6.93467 35.3174 6.41708 35.0186 6.28251 34.5154C6.07317 33.7341 5.41526 31.2792 5.41526 31.2792C5.04805 29.9078 5.86183 28.498 7.23317 28.1307L7.35682 28.0976L6.19194 23.7495L3.75515 25.0711C1.79317 26.5357 0.722006 28.569 0.73349 30.6725C0.747293 33.1918 0.764834 38.974 0.764834 38.974C0.766559 39.541 1.22636 39.9997 1.79345 39.9997H16.7034L16.7026 40ZM18.2945 25.0614V40H33.2044C33.7715 40 34.2313 39.5413 34.2331 38.9742C34.2331 38.9742 34.2509 33.1917 34.2644 30.6727C34.2759 28.5696 33.2047 26.5365 31.2433 25.0714L29.3302 24.0339L28.2289 28.1427C29.3357 28.8007 29.9194 30.137 29.5701 31.4416C29.1488 33.0142 27.5301 33.9485 25.9578 33.5272C24.3852 33.1059 23.4508 31.4873 23.8721 29.9149C24.2215 28.61 25.3953 27.7448 26.683 27.7284L27.8833 23.2491L26.2385 22.3574C25.9495 22.1414 25.5682 22.0928 25.2343 22.2291L18.2944 25.0613L18.2945 25.0614ZM27.0701 29.3745C27.7893 29.5674 28.2172 30.3079 28.024 31.0276C27.8313 31.7468 27.0908 32.1747 26.3714 31.982C25.6522 31.7891 25.2243 31.0486 25.417 30.3289C25.6099 29.6097 26.3504 29.1818 27.0701 29.3745ZM23.0322 18.8991C21.4331 20.4778 19.5082 21.3816 17.4985 21.3816C15.4908 21.3816 13.5676 20.4795 11.969 18.9031L11.8526 21.3626L17.4921 23.6642H17.5045L23.144 21.3623L23.0322 18.8991ZM17.4985 0C15.263 0 13.2449 0.717456 11.779 2.11267C10.3184 3.50214 9.38362 5.57425 9.38362 8.35556C9.38362 11.5388 10.6322 14.9576 12.5418 17.1856C13.9247 18.7982 15.654 19.7906 17.4985 19.7906C19.3429 19.7906 21.0722 18.7983 22.4551 17.1856C24.3647 14.9579 25.6133 11.5392 25.6133 8.35556C25.6133 5.57432 24.6782 3.50214 23.2182 2.11267C21.7517 0.717448 19.7339 0 17.4982 0H17.4985Z" fill="#30AD73"/>
</svg>
