<svg width="29" height="40" viewBox="0 0 29 40" fill="none" xmlns="http://www.w3.org/2000/svg">
<path fill-rule="evenodd" clip-rule="evenodd" d="M6.38354 0H28.7319V33.6375H6.38354V0ZM5.00582 33.6375V0H4.24122H4.24152C3.1883 0.00235615 2.17874 0.421754 1.43419 1.16631C0.689356 1.91115 0.269991 2.92049 0.267578 3.97363V34.5515C0.963822 33.9616 1.84676 33.6382 2.75922 33.6382L5.00582 33.6375ZM28.7332 35.0176L2.75749 35.0173C1.87542 35.0291 1.06521 35.5065 0.627529 36.2725C0.189874 37.0386 0.189874 37.979 0.627529 38.745C1.06518 39.5108 1.87542 39.9882 2.75749 40H28.7317V35.0173L28.7332 35.0176ZM12.2665 15.4431H13.6095L14.969 17.7987C15.0924 18.0128 15.3209 18.1441 15.568 18.1427C15.8148 18.1415 16.0422 18.0078 16.1632 17.7925L17.6641 15.193L18.7391 17.0556C18.8616 17.2691 19.0887 17.4004 19.3349 17.4002V17.4034H21.125V17.4031C21.3138 17.4128 21.4981 17.3445 21.6351 17.2143C21.7723 17.0841 21.8498 16.9033 21.8498 16.7142C21.8498 16.5251 21.7723 16.3446 21.6351 16.2141C21.4981 16.0839 21.3138 16.0156 21.125 16.0253H19.7304L18.2637 13.4863C18.2028 13.3785 18.1141 13.2887 18.0066 13.2268C17.8488 13.1358 17.6612 13.1117 17.4853 13.1591C17.3095 13.2065 17.1596 13.3219 17.0689 13.4801L15.5651 16.0822L14.6318 14.4676C14.5195 14.2223 14.2745 14.0647 14.0044 14.0644H12.2665C11.8954 14.0777 11.6017 14.3822 11.6017 14.7533C11.6017 15.1244 11.8954 15.4289 12.2665 15.4422L12.2665 15.4431ZM17.0731 24.9657C17.3411 25.229 17.7705 25.229 18.0385 24.9657C23.3719 19.7239 25.7516 17.3424 25.7584 17.3356C25.7852 17.3079 25.8102 17.2782 25.8326 17.2466C26.9058 15.7437 27.1609 13.8052 26.5132 12.0758C25.8653 10.3463 24.3995 9.05253 22.6026 8.62465C20.8061 8.19672 18.9144 8.69092 17.5566 9.94259C16.2033 8.69734 14.3208 8.20349 12.5304 8.62405C10.74 9.04433 9.27416 10.3249 8.61685 12.0425C7.95954 13.7601 8.19598 15.6919 9.2483 17.2004C9.27775 17.249 9.31338 17.2938 9.35402 17.3338C9.3608 17.3409 11.7417 19.7224 17.0731 24.964L17.0731 24.9657ZM10.3651 16.3954C10.6814 16.7108 13.1674 19.1913 17.5584 23.5104C21.9467 19.1916 24.4316 16.7114 24.7485 16.3954C25.582 15.2037 25.7345 13.664 25.1514 12.3317C24.5679 10.9996 23.333 10.0674 21.892 9.87184C20.4509 9.67598 19.0119 10.245 18.0945 11.3733C18.0638 11.411 18.0297 11.4457 17.9923 11.4764C17.8509 11.5921 17.6692 11.6469 17.4875 11.6289C17.3057 11.6107 17.1384 11.5208 17.0227 11.3795C16.1035 10.2597 14.6686 9.69692 13.2331 9.89333C11.7976 10.0897 10.5668 11.0172 9.98192 12.3428C9.3973 13.6684 9.54222 15.2029 10.3651 16.3954Z" fill="#30AD73"/>
</svg>
