<svg width="107" height="49" viewBox="0 0 107 49" fill="none" xmlns="http://www.w3.org/2000/svg">
<path d="M1.40311 0.317871H3.42651V36.6962H1.40311C0.694646 36.6962 0.123047 36.122 0.123047 35.4135V1.59793C0.123047 0.88947 0.694646 0.317871 1.40311 0.317871Z" fill="#FBFBFB"/>
<path d="M20.3361 19.1538C20.379 19.6986 20.481 20.2245 20.6366 20.7264V23.1335H10.6565C9.94799 23.1335 9.37371 23.7078 9.37371 24.4163V35.4135C9.37371 36.122 8.80212 36.6963 8.09365 36.6963H5.32422V19.1538H20.3361Z" fill="#FBFBFB"/>
<path d="M21.8254 13.8833C21.7154 14.0336 21.6081 14.1865 21.5088 14.3475L21.2458 14.7876C20.8352 15.5444 20.5454 16.3763 20.4032 17.2592H5.32422V0.317871H8.09365C8.80211 0.317871 9.37371 0.88947 9.37371 1.59793V12.6005C9.37371 13.309 9.94799 13.8833 10.6565 13.8833H21.8254Z" fill="#FBFBFB"/>
<path d="M32.5996 1.59793V12.2409C31.5315 11.4573 30.2515 10.9421 28.8614 10.7945C28.5904 10.765 28.3166 10.7516 28.0375 10.7516C27.6726 10.7516 27.3157 10.7757 26.9668 10.8267C25.6197 11.0145 24.3825 11.5513 23.3467 12.3375V1.59793C23.3467 0.88947 23.921 0.317871 24.6294 0.317871H31.3195C32.0253 0.317871 32.5996 0.88947 32.5996 1.59793Z" fill="#FBFBFB"/>
<path d="M32.5996 24.7302V35.4134C32.5996 36.1219 32.0253 36.6962 31.3195 36.6962H24.6294C23.921 36.6962 23.3467 36.1219 23.3467 35.4134V24.6335C24.3825 25.4198 25.6197 25.9565 26.9668 26.1444C27.3157 26.1954 27.6726 26.2195 28.0375 26.2195C28.3166 26.2195 28.5904 26.2061 28.8614 26.1766C30.2515 26.029 31.5315 25.5138 32.5996 24.7302Z" fill="#FBFBFB"/>
<path d="M28.8614 11.7443V12.9358C28.7943 12.9251 28.7272 12.9171 28.6574 12.909C28.5904 12.901 28.5233 12.8956 28.4535 12.8902C28.4106 12.8875 28.3676 12.8849 28.3247 12.8822C28.2871 12.8795 28.2522 12.8795 28.2147 12.8768C28.1556 12.8741 28.0966 12.8741 28.0375 12.8741C27.9382 12.8741 27.839 12.8768 27.7423 12.8822H27.7182C27.6431 12.8875 27.5679 12.8929 27.4928 12.901C27.4042 12.909 27.3157 12.9197 27.2298 12.9332C27.1412 12.9439 27.0527 12.96 26.9668 12.9761V11.7766C27.3157 11.7229 27.6726 11.6934 28.0375 11.6934C28.3166 11.6934 28.5904 11.7095 28.8614 11.7443Z" fill="#FBFBFB"/>
<path d="M28.8614 13.7839H26.9668V22.9268H28.8614V13.7839Z" fill="#FBFBFB"/>
<path d="M28.8614 24.0324V25.2266C28.5904 25.2615 28.3166 25.2776 28.0375 25.2776C27.6726 25.2776 27.3157 25.2481 26.9668 25.1944V23.9922C27.0527 24.0083 27.1412 24.0244 27.2298 24.0351C27.3157 24.0485 27.4042 24.0593 27.4928 24.0673C27.5679 24.0754 27.6431 24.0807 27.7182 24.0861H27.7423C27.839 24.0915 27.9382 24.0942 28.0375 24.0942C28.0966 24.0942 28.1556 24.0942 28.2147 24.0915C28.2522 24.0888 28.2871 24.0888 28.3247 24.0861C28.3676 24.0834 28.4106 24.0807 28.4535 24.0781C28.5233 24.0727 28.5904 24.0673 28.6574 24.0593C28.7272 24.0512 28.7943 24.0432 28.8614 24.0324Z" fill="#FBFBFB"/>
<path d="M32.4815 17.3531V19.3577H28.9124V22.9268H26.9078V19.3577H23.3467V17.3531H26.9078V13.7839H28.9124V17.3531H32.4815Z" fill="#FBFBFB"/>
<path d="M32.4815 17.3531V19.3577H28.9124V22.9268H26.9078V19.3577H23.3467V17.3531H26.9078V13.7839H28.9124V17.3531H32.4815Z" fill="#FBFBFB"/>
<path d="M32.5993 13.443C31.5822 12.5253 30.2914 11.9134 28.8611 11.7443C28.59 11.7095 28.3163 11.6934 28.0372 11.6934C27.6722 11.6934 27.3153 11.7229 26.9665 11.7766C25.5764 11.9966 24.3232 12.638 23.3463 13.5719C23.0055 13.8992 22.6969 14.2588 22.4286 14.6533C22.289 14.8546 22.1602 15.0666 22.0448 15.2866C21.5349 16.242 21.2451 17.3288 21.2451 18.4855V36.629L22.4286 36.6559V22.3176C22.6969 22.7121 23.0055 23.0717 23.3463 23.3991C24.3232 24.3329 25.5764 24.9743 26.9665 25.1944C27.3153 25.248 27.6722 25.2776 28.0372 25.2776C28.3163 25.2776 28.59 25.2614 28.8611 25.2266C30.2914 25.0575 31.5822 24.4456 32.5993 23.5279C33.9732 22.2827 34.8374 20.4847 34.8374 18.4855C34.8374 16.4862 33.9732 14.6936 32.5993 13.443ZM32.5993 21.746C32.5349 21.8345 32.4705 21.9231 32.4007 22.0063C32.3416 22.0814 32.2799 22.1539 32.2155 22.2237C32.1887 22.2559 32.1592 22.2881 32.127 22.3203L32.1189 22.3283C32.076 22.3766 32.0303 22.4249 31.9847 22.4679C31.9633 22.4893 31.9445 22.5108 31.923 22.5296C31.8801 22.5725 31.8371 22.6128 31.7942 22.6503C31.7915 22.653 31.7888 22.6557 31.7835 22.6584C31.7486 22.6933 31.7137 22.7255 31.6734 22.755C31.5983 22.8221 31.5205 22.8838 31.44 22.9455C31.3756 22.9965 31.3085 23.0448 31.2414 23.0904C31.1582 23.1495 31.075 23.2058 30.9891 23.2568C30.9891 23.2595 30.9864 23.2595 30.9864 23.2595C30.9301 23.2944 30.8737 23.3266 30.8174 23.3588C30.7771 23.383 30.7396 23.4044 30.6993 23.4259C30.6349 23.4608 30.5678 23.4957 30.498 23.5306H30.4954C30.4122 23.5708 30.3263 23.6084 30.2404 23.6459C30.1519 23.6835 30.0633 23.7184 29.9774 23.7506C29.8862 23.7828 29.7976 23.8123 29.7064 23.8418C29.6151 23.8687 29.5239 23.8955 29.43 23.9197C29.3656 23.9358 29.3012 23.9492 29.2368 23.9653C29.2046 23.9707 29.175 23.9787 29.1428 23.9841C29.0489 24.0029 28.955 24.019 28.8611 24.0324C28.794 24.0431 28.7269 24.0512 28.6571 24.0592C28.59 24.0673 28.5229 24.0726 28.4532 24.078C28.4102 24.0807 28.3673 24.0834 28.3244 24.086C28.2868 24.0887 28.2519 24.0887 28.2143 24.0914C28.1553 24.0941 28.0962 24.0941 28.0372 24.0941C27.9379 24.0941 27.8386 24.0914 27.742 24.086H27.7179C27.6427 24.0807 27.5676 24.0753 27.4924 24.0673C27.4039 24.0592 27.3153 24.0485 27.2295 24.0351C27.1409 24.0243 27.0523 24.0082 26.9665 23.9921C26.9289 23.9841 26.8913 23.976 26.8538 23.968C26.8162 23.9599 26.7786 23.9519 26.7411 23.9411C26.6981 23.9331 26.6579 23.9224 26.6203 23.9116C26.5639 23.8982 26.5076 23.8821 26.4512 23.866C26.3949 23.8499 26.3385 23.8311 26.2848 23.8123C26.2285 23.7962 26.1748 23.7774 26.1211 23.756C26.046 23.7291 25.9736 23.7023 25.9011 23.6701C25.8313 23.6433 25.7642 23.6137 25.6971 23.5815C25.6569 23.5628 25.614 23.544 25.5737 23.5225C25.4664 23.4688 25.3617 23.4152 25.257 23.3534C25.198 23.3212 25.1443 23.289 25.088 23.2541C25.088 23.2515 25.0853 23.2515 25.0853 23.2515C25.0477 23.23 25.0102 23.2058 24.9726 23.179C24.9189 23.1468 24.8679 23.1119 24.8196 23.077C24.7901 23.0556 24.7579 23.0341 24.7284 23.0099C24.664 22.9643 24.5996 22.916 24.5378 22.865C24.5298 22.8597 24.5217 22.8543 24.5164 22.8489C24.4842 22.8221 24.452 22.7953 24.4198 22.7657C24.4064 22.7577 24.3929 22.747 24.3822 22.7362L24.2292 22.5994C24.1514 22.5296 24.0763 22.4544 24.0011 22.3766C23.985 22.3605 23.9689 22.3417 23.9528 22.3256C23.8857 22.2532 23.8187 22.1807 23.7569 22.1056C23.7006 22.0412 23.6469 21.9741 23.5932 21.9043C23.5879 21.8989 23.5852 21.8936 23.5798 21.8882C23.5557 21.856 23.5315 21.8238 23.5074 21.7889C23.451 21.7138 23.3973 21.636 23.3463 21.5581C22.7694 20.6752 22.4286 19.6206 22.4286 18.4855C22.4286 17.3503 22.7694 16.2957 23.3463 15.4128C23.3973 15.335 23.451 15.2571 23.5074 15.182C23.5154 15.1659 23.5261 15.1552 23.5369 15.1417C23.5476 15.1283 23.5583 15.1149 23.5664 15.1015C23.5718 15.0961 23.5744 15.0881 23.5798 15.0827C23.5852 15.0773 23.5879 15.072 23.5932 15.0666C23.6469 14.9968 23.7006 14.9297 23.7569 14.8653C23.8267 14.7821 23.8992 14.6989 23.9743 14.6211C23.9797 14.6158 23.9877 14.6077 23.9931 14.6023C24.0682 14.5218 24.1487 14.444 24.2292 14.3716C24.2883 14.3152 24.3527 14.2588 24.4144 14.2079C24.46 14.1703 24.503 14.1327 24.5486 14.0978C24.6023 14.0522 24.6586 14.0093 24.715 13.9663C24.7498 13.9422 24.7847 13.918 24.8196 13.8912C24.8679 13.8563 24.9189 13.8214 24.9726 13.7892C25.0102 13.7624 25.0477 13.7382 25.0853 13.7168C25.1416 13.6819 25.198 13.647 25.257 13.6148C25.2597 13.6121 25.2651 13.6121 25.2678 13.6094C25.3027 13.5906 25.3349 13.5692 25.3724 13.5504C25.41 13.5289 25.4503 13.5074 25.4878 13.4887C25.5334 13.4645 25.5764 13.443 25.622 13.4216C25.681 13.3921 25.7401 13.3652 25.7991 13.3411C25.8689 13.3089 25.9413 13.2793 26.0165 13.2525C26.105 13.2149 26.1936 13.1827 26.2848 13.1559C26.3385 13.1344 26.3949 13.1183 26.4512 13.1022C26.5076 13.0861 26.5639 13.07 26.6203 13.0566C26.6579 13.0432 26.6981 13.0351 26.7411 13.0271C26.7786 13.019 26.8162 13.0083 26.8538 13.0003C26.8913 12.9922 26.9289 12.9842 26.9665 12.9761C27.0523 12.96 27.1409 12.9439 27.2295 12.9332C27.3153 12.9197 27.4039 12.909 27.4924 12.901C27.5676 12.8929 27.6427 12.8875 27.7179 12.8822H27.742C27.8386 12.8768 27.9379 12.8741 28.0372 12.8741C28.0962 12.8741 28.1553 12.8741 28.2143 12.8768C28.2519 12.8768 28.2868 12.8768 28.3244 12.8822C28.3673 12.8849 28.4102 12.8875 28.4532 12.8902C28.5229 12.8956 28.59 12.901 28.6571 12.909C28.7269 12.9171 28.794 12.9251 28.8611 12.9358C28.955 12.9493 29.0489 12.9654 29.1428 12.9842C29.175 12.9895 29.2046 12.9976 29.2368 13.0029C29.3012 13.019 29.3656 13.0325 29.43 13.0486C29.5239 13.0727 29.6151 13.0995 29.7064 13.1264C29.7654 13.1452 29.8271 13.164 29.8862 13.1854C29.9908 13.223 30.0955 13.2606 30.1975 13.3035C30.2995 13.3464 30.3987 13.3921 30.498 13.4404C30.5678 13.4752 30.6349 13.5101 30.6993 13.545C30.7396 13.5665 30.7771 13.588 30.8174 13.6121C30.8737 13.6443 30.9301 13.6765 30.9864 13.7114C30.9864 13.7114 30.9891 13.7114 30.9891 13.7141C31.075 13.7651 31.1582 13.8214 31.2414 13.8805C31.3085 13.9261 31.3756 13.9744 31.44 14.0254C31.5205 14.0871 31.5983 14.1488 31.6734 14.2159C31.7137 14.2454 31.7486 14.2776 31.7835 14.3125C31.7888 14.3152 31.7915 14.3179 31.7942 14.3206C31.8371 14.3581 31.8801 14.3984 31.923 14.4413C31.9552 14.4708 31.9901 14.503 32.0196 14.5379C32.0733 14.5889 32.1243 14.6426 32.1726 14.6989C32.1887 14.7151 32.2021 14.7312 32.2155 14.7473C32.2799 14.817 32.3416 14.8895 32.4007 14.9646C32.4705 15.0478 32.5349 15.1364 32.5993 15.2249C33.2621 16.1454 33.6485 17.2725 33.6485 18.4855C33.6485 19.6984 33.2621 20.8255 32.5993 21.746Z" fill="#FBFBFB"/>
<path d="M26.8996 45.8875C26.8164 45.4877 26.7225 45.0825 26.6312 44.6853C26.5936 44.5136 26.5507 44.3364 26.5105 44.1647C26.4487 43.8856 26.3897 43.6038 26.328 43.3274C26.4004 43.306 26.4487 43.2818 26.5105 43.2603C26.4944 43.1933 26.4836 43.1342 26.4729 43.0725C26.3548 42.6297 26.2341 42.1896 26.116 41.7468C25.8396 40.6841 25.59 39.6134 25.115 38.6044C24.7876 37.912 24.3609 37.2814 23.6498 36.8869C23.4619 36.7876 23.2687 36.7044 23.0701 36.6266C22.8581 36.5434 22.6434 36.4656 22.4368 36.3824C22.4368 36.3824 22.4314 36.3797 22.4288 36.3743C22.3992 36.3555 22.3992 36.2938 22.3992 36.2401V35.5397C22.3992 35.1909 22.3939 34.8366 22.3992 34.4878L21.8008 34.4717L21.6237 34.4663H21.613C21.6049 34.8635 21.6049 35.164 21.5995 35.5746V36.3448C21.4734 36.3636 21.3553 36.3851 21.2453 36.4092C20.4376 36.581 19.9975 36.852 19.501 37.437C19.0341 37.9952 18.6691 38.6097 18.3578 39.2538C17.8372 40.3406 17.432 41.465 17.1019 42.6109C16.9999 42.9437 16.9167 43.2818 16.8228 43.6199C16.9006 43.6495 16.957 43.6656 17.0053 43.6817C16.9462 43.9581 16.8845 44.2291 16.8228 44.5082V44.5136C16.8013 44.6182 16.7799 44.7175 16.7584 44.8168C16.6752 45.1952 16.5786 45.5655 16.5035 45.9493C16.4069 46.4082 16.4793 46.8402 16.8067 47.2159C17.1663 47.6265 17.6601 47.7929 18.1861 47.9056C18.2585 47.9163 18.331 47.9754 18.3685 48.0317C18.4651 48.1766 18.5805 48.2867 18.7577 48.3028C18.9294 48.3189 19.1065 48.3269 19.2783 48.3028C19.5225 48.2759 19.6781 48.0988 19.7049 47.8653C19.7398 47.6104 19.6271 47.3957 19.4178 47.3072C19.0582 47.1569 18.5859 47.2615 18.331 47.5675C18.0921 47.495 17.8265 47.4333 17.593 47.3286C17.0563 47.0898 16.8013 46.6792 16.8953 46.1371C16.9623 45.748 17.0455 45.3669 17.1287 44.9832C17.2066 44.6397 17.2844 44.3016 17.3568 43.9581C17.3837 43.8158 17.4266 43.7139 17.5984 43.7648C17.6118 43.7487 17.6171 43.7488 17.6225 43.7434C17.6547 43.6199 17.6869 43.4938 17.7218 43.3704C18.1431 41.7978 18.6691 40.2574 19.501 38.8217C19.7667 38.3628 20.0699 37.9227 20.4751 37.5524C20.8133 37.2411 21.2024 37.0747 21.6881 37.1043C22.8259 37.1526 23.6793 37.598 24.2053 38.5668C24.6534 39.3933 24.8923 40.2789 25.1311 41.1645C25.3243 41.8971 25.5175 42.6351 25.7188 43.3704C25.7242 43.3945 25.7403 43.4214 25.7564 43.4482C25.8181 43.4375 25.8691 43.4267 25.9335 43.416C25.9684 43.5663 25.9952 43.6978 26.0221 43.8373C26.124 44.2747 26.2233 44.7068 26.3119 45.1442V45.1496C26.3843 45.4555 26.4434 45.7534 26.5051 46.0593C26.6205 46.6363 26.3763 47.0683 25.8181 47.3179C25.6571 47.3903 25.48 47.4386 25.3082 47.4896C25.115 47.5433 24.9191 47.6265 24.7661 47.3903C24.7205 47.3125 24.5649 47.2884 24.4549 47.2615C24.3609 47.2454 24.2563 47.2562 24.1543 47.2562C23.7893 47.2615 23.5907 47.4494 23.5907 47.7875C23.5907 48.1256 23.7893 48.3081 24.1597 48.3135C24.2429 48.3189 24.3314 48.3189 24.4226 48.3135C24.6266 48.3081 24.7822 48.2196 24.8869 48.0478C24.9245 47.9941 25.0023 47.9378 25.0748 47.9163C25.2921 47.8546 25.5229 47.8278 25.7403 47.7607C26.6554 47.4708 27.0874 46.7731 26.8996 45.8875ZM17.2549 43.899C17.1851 44.2184 17.1126 44.535 17.0402 44.8571C16.9946 45.0342 16.957 45.2113 16.9167 45.3884C16.8631 45.638 16.8013 45.8875 16.7691 46.1425C16.6913 46.6899 16.9623 47.1676 17.4937 47.4064C17.7218 47.5057 17.9714 47.554 18.2102 47.6372C18.2639 47.6614 18.3041 47.7097 18.331 47.766C17.9714 47.766 17.6493 47.6668 17.3622 47.5004C16.7128 47.1354 16.4847 46.647 16.6296 45.9439C16.7181 45.5092 16.8121 45.0825 16.9114 44.6558C16.9838 44.3418 17.0563 44.0198 17.1287 43.7031C17.3273 43.687 17.2736 43.8078 17.2549 43.899ZM25.7671 47.6211C25.5068 47.7151 25.2358 47.766 24.9701 47.8385C24.954 47.809 24.9379 47.7821 24.9137 47.7553C24.9647 47.7204 25.0023 47.6667 25.0587 47.6614C25.4639 47.5889 25.8503 47.4843 26.1831 47.2347C26.4997 47.0012 26.6876 46.6953 26.6393 46.3142C26.5883 45.8768 26.4944 45.4448 26.4112 45.0181C26.4058 44.9886 26.4004 44.9671 26.3951 44.9402C26.2958 44.4518 26.1831 43.9688 26.073 43.4831C26.0516 43.3757 26.0891 43.3489 26.2045 43.3543C26.2716 43.636 26.3387 43.9151 26.4004 44.2023C26.4434 44.4143 26.489 44.6236 26.5319 44.8356V44.841C26.6259 45.2489 26.709 45.6487 26.7922 46.0647C26.9479 46.867 26.4487 47.3716 25.7671 47.6211Z" fill="#FBFBFB"/>
<path d="M46.9365 2.58775H49.8605V7.53613H55.5399V2.58775H58.4639V15.8584H55.5399V10.1228H49.8605V15.8584H46.9365V2.58775ZM67.0447 10.2727C67.0572 9.79789 66.901 9.39177 66.5761 9.05438C66.2512 8.71699 65.8326 8.5483 65.3202 8.5483C65.0078 8.5483 64.7329 8.59828 64.4955 8.69825C64.2581 8.79822 64.0519 8.92942 63.877 9.09187C63.7145 9.24182 63.5833 9.42301 63.4833 9.63544C63.3959 9.83538 63.3459 10.0478 63.3334 10.2727H67.0447ZM69.4251 14.2839C68.9753 14.8587 68.4067 15.3023 67.7194 15.6147C67.0322 15.9271 66.3199 16.0833 65.5826 16.0833C64.8829 16.0833 64.2206 15.9709 63.5958 15.7459C62.9835 15.521 62.4462 15.2024 61.9838 14.79C61.534 14.3651 61.1778 13.8591 60.9154 13.2717C60.653 12.6844 60.5218 12.0284 60.5218 11.3036C60.5218 10.5789 60.653 9.92285 60.9154 9.33554C61.1778 8.74823 61.534 8.2484 61.9838 7.83603C62.4462 7.41117 62.9835 7.08628 63.5958 6.86135C64.2206 6.63643 64.8829 6.52396 65.5826 6.52396C66.2324 6.52396 66.8197 6.63643 67.3446 6.86135C67.8819 7.08628 68.3317 7.41117 68.6941 7.83603C69.069 8.2484 69.3564 8.74823 69.5563 9.33554C69.7563 9.92285 69.8562 10.5789 69.8562 11.3036V12.1846H63.3334C63.4458 12.7219 63.6895 13.153 64.0644 13.4779C64.4393 13.7903 64.9016 13.9465 65.4514 13.9465C65.9138 13.9465 66.3012 13.8466 66.6136 13.6466C66.9384 13.4342 67.2196 13.1655 67.457 12.8406L69.4251 14.2839ZM76.5894 11.866C76.377 11.866 76.1083 11.8785 75.7834 11.9034C75.471 11.9159 75.1649 11.9659 74.865 12.0534C74.5775 12.1409 74.3276 12.2721 74.1152 12.447C73.9153 12.622 73.8153 12.8656 73.8153 13.178C73.8153 13.5154 73.959 13.7653 74.2464 13.9278C74.5338 14.0902 74.8337 14.1715 75.1461 14.1715C75.421 14.1715 75.6834 14.134 75.9333 14.059C76.1958 13.984 76.4269 13.8778 76.6269 13.7403C76.8268 13.6029 76.983 13.4279 77.0955 13.2155C77.2204 13.0031 77.2829 12.7532 77.2829 12.4658V11.866H76.5894ZM77.2829 14.715H77.2454C76.933 15.2024 76.5144 15.5522 75.9896 15.7647C75.4772 15.9771 74.9337 16.0833 74.3589 16.0833C73.934 16.0833 73.5216 16.0208 73.1218 15.8959C72.7344 15.7834 72.3908 15.6085 72.0909 15.3711C71.791 15.1336 71.5535 14.84 71.3786 14.4901C71.2037 14.1402 71.1162 13.7341 71.1162 13.2717C71.1162 12.7469 71.2099 12.3033 71.3973 11.9409C71.5973 11.5786 71.8597 11.2787 72.1846 11.0412C72.522 10.8038 72.9031 10.6226 73.328 10.4977C73.7528 10.3602 74.1902 10.2602 74.64 10.1978C75.1024 10.1353 75.5585 10.0978 76.0083 10.0853C76.4707 10.0728 76.8955 10.0665 77.2829 10.0665C77.2829 9.56671 77.1017 9.17309 76.7393 8.88569C76.3894 8.58579 75.9708 8.43583 75.4835 8.43583C75.0211 8.43583 74.5963 8.5358 74.2089 8.73574C73.834 8.92317 73.4966 9.18559 73.1967 9.52298L71.6972 7.98598C72.2221 7.49864 72.8344 7.13626 73.5341 6.89884C74.2339 6.64892 74.9587 6.52396 75.7084 6.52396C76.5332 6.52396 77.2079 6.63018 77.7328 6.84261C78.2701 7.04254 78.6949 7.34244 79.0073 7.74231C79.3322 8.14218 79.5572 8.63577 79.6821 9.22308C79.8071 9.79789 79.8696 10.4664 79.8696 11.2287V15.8584H77.2829V14.715ZM81.671 1.68805H84.4826V15.8584H81.671V1.68805ZM92.7067 8.99815H90.2326V12.0347C90.2326 12.2846 90.2451 12.5157 90.27 12.7282C90.295 12.9281 90.3513 13.1031 90.4387 13.253C90.5262 13.403 90.6574 13.5217 90.8324 13.6091C91.0198 13.6841 91.2635 13.7216 91.5634 13.7216C91.7133 13.7216 91.907 13.7091 92.1444 13.6841C92.3943 13.6466 92.5818 13.5716 92.7067 13.4592V15.8022C92.3943 15.9146 92.0695 15.9896 91.7321 16.0271C91.3947 16.0646 91.0635 16.0833 90.7386 16.0833C90.2638 16.0833 89.8264 16.0333 89.4266 15.9334C89.0267 15.8334 88.6768 15.6772 88.3769 15.4648C88.077 15.2399 87.8396 14.9524 87.6647 14.6026C87.5022 14.2527 87.421 13.8278 87.421 13.328V8.99815H85.6216V6.74889H87.421V4.04977H90.2326V6.74889H92.7067V8.99815ZM96.9471 1.68805V7.98598H96.9846C97.0471 7.81104 97.1533 7.6361 97.3032 7.46115C97.4532 7.28621 97.6344 7.13001 97.8468 6.99256C98.0592 6.8551 98.3092 6.74264 98.5966 6.65517C98.884 6.5677 99.1964 6.52396 99.5338 6.52396C100.246 6.52396 100.821 6.63643 101.258 6.86135C101.696 7.07378 102.033 7.37368 102.27 7.76106C102.52 8.14843 102.689 8.60453 102.776 9.12936C102.864 9.65418 102.908 10.2227 102.908 10.835V15.8584H100.096V11.3974C100.096 11.1349 100.084 10.8663 100.059 10.5914C100.046 10.304 99.9899 10.0416 99.8899 9.80414C99.8024 9.56671 99.6587 9.37303 99.4588 9.22308C99.2713 9.07313 98.9964 8.99815 98.6341 8.99815C98.2717 8.99815 97.978 9.06688 97.7531 9.20433C97.5282 9.32929 97.3532 9.50423 97.2283 9.72916C97.1158 9.94159 97.0408 10.1853 97.0033 10.4602C96.9659 10.7351 96.9471 11.0225 96.9471 11.3224V15.8584H94.1355V1.68805H96.9471ZM49.8605 25.2109H51.8099C52.0723 25.2109 52.3222 25.1859 52.5596 25.1359C52.8095 25.0859 53.0282 25.0047 53.2157 24.8923C53.4156 24.7673 53.5718 24.6049 53.6843 24.4049C53.8092 24.1925 53.8717 23.9301 53.8717 23.6177C53.8717 23.2803 53.7905 23.0116 53.628 22.8117C53.4781 22.5993 53.2781 22.4368 53.0282 22.3244C52.7908 22.2119 52.5221 22.1432 52.2222 22.1182C51.9223 22.0807 51.6349 22.0619 51.36 22.0619H49.8605V25.2109ZM46.9365 19.5878H51.8661C52.5534 19.5878 53.2032 19.6502 53.8155 19.7752C54.4278 19.9002 54.9588 20.1188 55.4087 20.4312C55.871 20.7311 56.2334 21.1435 56.4958 21.6683C56.7707 22.1807 56.9082 22.8304 56.9082 23.6177C56.9082 24.3924 56.7832 25.0422 56.5333 25.567C56.2834 26.0919 55.9398 26.5105 55.5024 26.8229C55.0651 27.1353 54.5465 27.3602 53.9467 27.4977C53.3469 27.6226 52.6971 27.6851 51.9973 27.6851H49.8605V32.8584H46.9365V19.5878ZM61.1983 18.688V24.986H61.2358C61.2983 24.811 61.4045 24.6361 61.5545 24.4612C61.7044 24.2862 61.8856 24.13 62.098 23.9926C62.3105 23.8551 62.5604 23.7426 62.8478 23.6552C63.1352 23.5677 63.4476 23.524 63.785 23.524C64.4973 23.524 65.0721 23.6364 65.5094 23.8614C65.9468 24.0738 66.2842 24.3737 66.5216 24.7611C66.7715 25.1484 66.9402 25.6045 67.0277 26.1294C67.1151 26.6542 67.1589 27.2227 67.1589 27.835V32.8584H64.3473V28.3974C64.3473 28.1349 64.3348 27.8663 64.3098 27.5914C64.2973 27.304 64.2411 27.0416 64.1411 26.8041C64.0537 26.5667 63.91 26.373 63.71 26.2231C63.5226 26.0731 63.2477 25.9981 62.8853 25.9981C62.5229 25.9981 62.2293 26.0669 62.0043 26.2043C61.7794 26.3293 61.6045 26.5042 61.4795 26.7292C61.367 26.9416 61.2921 27.1853 61.2546 27.4602C61.2171 27.7351 61.1983 28.0225 61.1983 28.3224V32.8584H58.3868V18.688H61.1983ZM68.9624 20.8811C68.9624 20.4312 69.1186 20.0501 69.431 19.7377C69.7559 19.4128 70.1433 19.2504 70.5931 19.2504C71.043 19.2504 71.4241 19.4128 71.7365 19.7377C72.0614 20.0501 72.2238 20.4312 72.2238 20.8811C72.2238 21.3309 72.0614 21.7183 71.7365 22.0432C71.4241 22.3556 71.043 22.5118 70.5931 22.5118C70.1433 22.5118 69.7559 22.3556 69.431 22.0432C69.1186 21.7183 68.9624 21.3309 68.9624 20.8811ZM69.1873 23.7489H71.9989V32.8584H69.1873V23.7489ZM74.0563 18.688H76.8679V32.8584H74.0563V18.688ZM78.7004 20.8811C78.7004 20.4312 78.8566 20.0501 79.169 19.7377C79.4939 19.4128 79.8813 19.2504 80.3311 19.2504C80.781 19.2504 81.1621 19.4128 81.4745 19.7377C81.7994 20.0501 81.9618 20.4312 81.9618 20.8811C81.9618 21.3309 81.7994 21.7183 81.4745 22.0432C81.1621 22.3556 80.781 22.5118 80.3311 22.5118C79.8813 22.5118 79.4939 22.3556 79.169 22.0432C78.8566 21.7183 78.7004 21.3309 78.7004 20.8811ZM78.9253 23.7489H81.7369V32.8584H78.9253V23.7489ZM89.9236 26.6917C89.7861 26.4917 89.5924 26.3293 89.3425 26.2043C89.0926 26.0669 88.8239 25.9981 88.5365 25.9981C87.8243 25.9981 87.2682 26.2106 86.8683 26.6354C86.481 27.0603 86.2873 27.6164 86.2873 28.3036C86.2873 28.9909 86.481 29.547 86.8683 29.9718C87.2682 30.3967 87.8243 30.6091 88.5365 30.6091C88.8489 30.6091 89.1176 30.5404 89.3425 30.403C89.5674 30.2655 89.7611 30.1031 89.9236 29.9156L91.7792 31.865C91.3419 32.3148 90.8233 32.6335 90.2235 32.8209C89.6362 32.9959 89.0739 33.0833 88.5365 33.0833C87.8368 33.0833 87.1745 32.9709 86.5497 32.7459C85.9374 32.521 85.4001 32.2024 84.9377 31.79C84.4879 31.3651 84.1317 30.8591 83.8693 30.2717C83.6069 29.6844 83.4757 29.0284 83.4757 28.3036C83.4757 27.5789 83.6069 26.9228 83.8693 26.3355C84.1317 25.7482 84.4879 25.2484 84.9377 24.836C85.4001 24.4112 85.9374 24.0863 86.5497 23.8614C87.1745 23.6364 87.8368 23.524 88.5365 23.524C89.0739 23.524 89.6362 23.6177 90.2235 23.8051C90.8233 23.9801 91.3419 24.2925 91.7792 24.7423L89.9236 26.6917Z" fill="#FBFBFB"/>
</svg>
