<svg width="33" height="40" viewBox="0 0 33 40" fill="none" xmlns="http://www.w3.org/2000/svg">
<path fill-rule="evenodd" clip-rule="evenodd" d="M25.645 29.3093L26.8654 28.1427C31.0112 24.1807 33.23 18.6117 32.9448 12.8844V12.8841C32.5856 5.66727 26.6296 0 19.4039 0H18.8492C11.4678 0 5.32823 5.67728 4.75182 13.0358L4.51429 16.0695L0.424869 22.2601C-0.0404032 22.9638 -0.0993545 23.861 0.269872 24.6199C0.639385 25.3782 1.38132 25.8857 2.22216 25.9542L3.28759 26.041L3.25452 31.8643C3.24964 32.7808 3.65912 33.6504 4.36884 34.2304C5.07854 34.8101 6.01253 35.0379 6.90976 34.8501L7.74368 34.6753V38.4001C7.74368 39.2837 8.45999 40 9.34364 40H24.0454C24.9291 40 25.6454 39.2837 25.6454 38.4001V29.3093L25.645 29.3093ZM18.8991 9.31983C16.5685 7.3716 13.2879 7.70405 11.4927 9.20624C9.40986 10.9486 9.06077 14.4246 11.1364 17.9098C12.3755 20.1105 15.4854 22.371 18.1201 23.8404C18.6046 24.1107 19.1944 24.1107 19.6789 23.8404C22.3176 22.3686 25.4336 20.1027 26.6712 17.8948C28.7376 14.4222 28.3883 10.9482 26.306 9.20595C24.5105 7.70346 21.23 7.37131 18.8996 9.31954L18.8991 9.31983ZM18.8991 11.7675C20.4942 9.09899 23.6841 9.09899 25.2792 10.4333C26.8743 11.7675 26.8743 14.4367 25.2792 17.1055C24.1629 19.1072 21.2919 21.1089 18.8991 22.4435C16.5069 21.1089 13.6359 19.1073 12.519 17.1055C10.9242 14.4367 10.9242 11.7675 12.519 10.4333C14.1141 9.09899 17.304 9.09899 18.8991 11.7675ZM15.3437 16.8001H16.7657C17.0492 16.8001 17.3118 16.65 17.4555 16.405L17.9418 15.578L18.843 18.6466C18.9327 18.9528 19.1961 19.176 19.5127 19.2151C19.829 19.2542 20.1388 19.1012 20.3 18.826L21.4906 16.7999H22.4548C22.8965 16.7999 23.2548 16.441 23.2548 15.9999C23.2548 15.5582 22.8965 15.1999 22.4548 15.1999H21.0328C20.7493 15.1999 20.4867 15.3501 20.343 15.5948L19.8573 16.4218L18.9561 13.3532C18.8658 13.0469 18.6029 12.8238 18.2863 12.7847C17.9697 12.7459 17.6603 12.8985 17.4987 13.1737L16.3085 15.2002H15.344C14.9023 15.2002 14.544 15.5585 14.544 16.0001C14.544 16.4412 14.9023 16.8001 15.344 16.8001L15.3437 16.8001Z" fill="#30AD73"/>
</svg>
