<svg width="47" height="40" viewBox="0 0 47 40" fill="none" xmlns="http://www.w3.org/2000/svg">
<path fill-rule="evenodd" clip-rule="evenodd" d="M3.06254 30.25H4.75015V33.0624C4.75015 34.3123 6.62526 34.3123 6.62526 33.0624V30.25H8.31287V33.0624C8.31287 34.3123 10.188 34.3123 10.188 33.0624V30.25H11.8756V33.0624C11.8756 34.3123 13.7507 34.3123 13.7507 33.0624V30.25H15.4383V33.0624C15.4383 34.3123 17.3134 34.3123 17.3134 33.0624V30.25H19.001V33.0624C19.001 34.3123 20.8761 34.3123 20.8761 33.0624V30.25H22.5637L22.5624 35.625C22.5624 36.8749 24.4375 36.8749 24.4375 35.625V30.25H26.1251V33.0624C26.1251 34.3123 28.0002 34.3123 28.0002 33.0624V30.25H29.6879V33.0624C29.6879 34.3123 31.563 34.3123 31.563 33.0624V30.25H33.2506V33.0624C33.2506 34.3123 35.1257 34.3123 35.1257 33.0624V30.25H36.8133V33.0624C36.8133 34.3123 38.6884 34.3123 38.6884 33.0624V30.25H40.376V33.0624C40.376 34.3123 42.2511 34.3123 42.2511 33.0624V30.25H43.9387L43.9374 35.625C43.9374 36.8749 45.8125 36.8749 45.8125 35.625V30.3751C46.5 30.6249 47.0001 31.3124 47.0001 32.1251V38.1249C47.0001 39.125 46.1875 40 45.125 40H1.87511C0.875009 40 0 39.1874 0 38.1249V32.1246C0 31.312 0.500054 30.6873 1.18761 30.3746V35.625C1.18761 36.8749 3.06272 36.8749 3.06272 35.625L3.06254 30.25ZM23.625 7.87491H35.625C38.0001 7.87491 39.9376 9.8123 39.9376 12.1875V29.0626H25.5001C26.25 28.1876 26.8751 27.2503 27.4375 26.1873C28.2501 24.6872 28.6874 23 28.5623 21.3123C28.4371 19.8749 27.8124 18.4999 26.6249 17.5621C25.3122 16.4997 23.7497 16.3122 22.25 16.6248C23.4999 14.6245 23.5627 12.1248 22.3751 10.0621L22.0002 9.43697H21.2503C20.8754 9.43697 20.5628 9.49931 20.1879 9.49931C21.0624 8.50008 22.3127 7.87491 23.625 7.87491ZM20.4376 0H37.0001V4.5624H20.4376V0ZM20.8125 18.5001C18.5626 19.6248 15.7502 19.6248 13.5001 18.5001C8.5628 15.9374 5.18758 20.3752 7.93758 25.6251C8.6251 26.875 9.43769 28.0626 10.4373 29.0627H23.8748C24.8749 28.0626 25.6871 26.875 26.3746 25.6251C29.1247 20.3752 25.6871 15.9379 20.8121 18.5001H20.8125ZM21.3749 10.6251C19.5627 10.6251 17.8122 11.5625 16.875 13.1249C15.8749 14.6874 15.7502 16.6248 16.5624 18.3124C18.4375 18.4376 20.2497 17.5626 21.3122 15.9373C22.25 14.3124 22.3128 12.3126 21.375 10.625L21.3749 10.6251Z" fill="#30AD73"/>
</svg>
