<svg width="45" height="40" viewBox="0 0 45 40" fill="none" xmlns="http://www.w3.org/2000/svg">
<path d="M12.6263 26.0662L4.51545 34.1766C4.07577 34.6186 3.8291 35.2165 3.8291 35.8394C3.8291 36.4627 4.07576 37.0606 4.51545 37.5022L4.59258 37.5793V37.5797C5.03578 38.0194 5.63447 38.2664 6.2589 38.2664C6.88333 38.2664 7.48241 38.0194 7.92522 37.5797L16.036 29.476C16.4017 29.1075 16.6355 28.6279 16.7004 28.1126C16.765 27.5974 16.6574 27.0751 16.3939 26.6272L17.2427 25.7714C19.3538 27.5673 22.2452 28.1409 24.8821 27.2869C27.5191 26.433 29.5252 24.2738 30.1834 21.5813C30.8412 18.8888 30.0569 16.0475 28.111 14.0739C26.1652 12.1003 23.3353 11.2757 20.6337 11.8955C17.9321 12.5153 15.7444 14.4905 14.8532 17.1152C13.9621 19.7397 14.4946 22.6388 16.2604 24.7754L15.3763 25.6594C14.9343 25.4257 14.4292 25.3392 13.9347 25.4124C13.4398 25.4856 12.9818 25.7146 12.6263 26.0662ZM15.0396 28.4795L6.92918 36.5903C6.55449 36.9493 5.9633 36.9493 5.58901 36.5903L5.51188 36.492C5.33178 36.3143 5.23037 36.0715 5.23037 35.8186C5.23037 35.5653 5.33178 35.323 5.51188 35.1448L13.6223 27.0556C13.9938 26.6891 14.5909 26.6891 14.9625 27.0556L15.0396 27.1327C15.4108 27.505 15.4108 28.1072 15.0396 28.4795ZM22.4977 12.9881C24.2655 12.9881 25.9607 13.6904 27.2108 14.9402C28.4606 16.1904 29.163 17.8857 29.163 19.6533C29.163 21.421 28.4606 23.1164 27.2108 24.3664C25.9606 25.6162 24.2654 26.3186 22.4977 26.3186C20.73 26.3186 19.0347 25.6162 17.7846 24.3664C16.5348 23.1163 15.8324 21.421 15.8324 19.6533C15.8344 17.886 16.5371 16.1919 17.7865 14.9421C19.0363 13.6928 20.7303 12.99 22.4977 12.9881Z" fill="#30AD73"/>
<path d="M34.6571 0.282249C32.4504 -0.180531 30.1605 -0.0458432 28.023 0.67181C25.8853 1.38947 23.9783 2.66467 22.4983 4.36547C20.3801 1.90754 17.3936 0.363304 14.1632 0.0564011C10.9327 -0.250552 7.70885 0.703583 5.16551 2.7187C2.62218 4.73381 0.956656 7.6546 0.516947 10.8694C-0.381203 17.5488 3.7231 22.2424 8.38189 26.8449L9.8693 25.3435C5.60362 21.1339 1.83607 16.8753 2.61476 11.15C2.91467 9.02634 3.85591 7.0453 5.31315 5.4718C6.76999 3.8979 8.67316 2.8071 10.7675 2.34474C12.8037 1.89802 14.9274 2.07224 16.8634 2.8455C18.7995 3.61836 20.4596 4.95423 21.6283 6.68088L22.4982 7.95059L23.3682 6.68048V6.68087C24.5361 4.95392 26.1962 3.61726 28.1322 2.84398C30.0687 2.07113 32.1928 1.89729 34.229 2.34479C36.3244 2.80601 38.2292 3.89634 39.6876 5.46995C41.1461 7.04385 42.0885 9.02579 42.3887 11.1502C43.238 17.4157 38.6352 21.9479 34.1307 26.3329L33.0853 27.3712C29.4441 30.9564 24.3433 35.545 22.498 37.1937C21.4174 36.2325 19.2143 34.2542 16.8851 32.0718L15.4819 33.6151C18.8075 36.6952 21.7964 39.3681 21.8594 39.3892L22.498 40L23.1996 39.3826C23.2697 39.3266 30.0403 33.3347 34.5727 28.8585L35.611 27.8413C40.2345 23.3162 45.4688 18.1872 44.4865 10.8765C44.1231 8.31903 42.9869 5.93427 41.2302 4.04053C39.4735 2.1471 37.1799 0.835896 34.6569 0.282329L34.6571 0.282249Z" fill="#30AD73"/>
<path d="M26.0061 19.6537H27.4093C27.4093 18.3511 26.8917 17.1021 25.9708 16.1809C25.0496 15.2601 23.8006 14.7424 22.498 14.7424V16.1456C23.4283 16.1456 24.3206 16.5152 24.9787 17.173C25.6365 17.8311 26.0061 18.7234 26.0061 19.6537Z" fill="#30AD73"/>
</svg>
